<svg width="160" height="22" viewBox="0 0 160 22" fill="none" xmlns="http://www.w3.org/2000/svg">
<path d="M2.22729 11.1272V4.96686H8.93902V11.1272H2.22729ZM3.73293 17.8072V12.548H13.0742V14.2021H5.78992V16.1743H13.1696V17.8072H3.73293ZM6.88203 6.57853H4.27368V9.49437H6.88203V6.57853ZM13.0954 4.02319V11.7634H10.9854V4.02319H13.0954Z" fill="#969696"/>
<path d="M15.057 16.1849V14.552H19.4891V9.8655H21.5673V14.552H27.664V16.1849H15.057ZM26.3493 5.25317C26.4235 7.90394 26.1266 11.0955 25.6919 13.0464L23.7303 12.845C24.0696 11.5514 24.3241 9.29294 24.3029 8.15841V6.90725H16.4248V5.26378H26.3493V5.25317Z" fill="#969696"/>
<path d="M39.9847 14.605C38.8184 13.9689 37.2279 12.442 36.8144 11.0848C36.4645 12.5268 34.8422 14.3188 33.5911 14.9549C33.1776 14.4354 32.7322 13.9052 32.3081 13.3963C34.7256 11.9649 35.7117 9.90789 35.7117 6.98144V5.16832H37.8641V6.90722C37.8641 9.82306 38.988 11.7528 41.1723 12.9722C40.7693 13.5341 40.377 14.0643 39.9847 14.605ZM43.664 9.19748H45.5937V10.894H43.664V17.9768H41.6176V4.02319H43.664V9.20808V9.19748Z" fill="#969696"/>
<path d="M46.2723 12.4101V10.7666H58.8794V12.4101H46.2723ZM47.8204 17.6056V13.4704H49.9092V15.9833H57.4161V17.6056H47.8204ZM47.937 9.56847V4.479H50.0258V7.9568H57.3631V9.57907H47.937V9.56847Z" fill="#969696"/>
<path d="M63.9476 11.5301V9.90784H76.5547V11.5301H63.9476ZM75.2505 9.39889C73.4374 9.29286 71.1683 8.56125 70.2458 7.16165C69.387 8.56125 67.2558 9.28226 65.2836 9.39889L64.4778 7.79783C66.6726 7.72361 68.3161 7.08742 68.8674 6.08014H65.1564V4.44727H75.3035V6.06953H71.6773C72.324 7.09803 74.2644 7.74481 76.0775 7.76602L75.2505 9.39889ZM65.4109 17.9343V14.3293H72.886V13.7886H65.4215V12.1663H74.9642V15.7395H67.4678V16.2697H75.3353V17.9343H65.4109Z" fill="#969696"/>
<path d="M84.6448 5.46521C84.5282 9.54738 82.8635 13.0676 78.3254 15.5487L77.1591 13.9264C80.2021 12.495 82.1637 9.83366 82.45 7.15109H78.0179V5.4546H84.6448V5.46521ZM87.0199 17.9768V11.0848H84.5494V9.34592H87.0199V4.02319H89.0981V17.9768H87.0199Z" fill="#969696"/>
<path d="M92.6183 17.8177V13.1206H96.3188V11.9755H91.0491V10.3426H103.656V11.9755H98.3864V13.1206H102.108V17.8177H92.6289H92.6183ZM97.3473 4.39429C100.422 4.39429 102.32 5.53942 102.32 7.11927C102.32 8.69913 100.422 9.82305 97.3473 9.82305C94.2724 9.82305 92.3851 8.67792 92.3851 7.11927C92.3851 5.56062 94.2512 4.39429 97.3473 4.39429ZM97.3473 8.29621C99.0862 8.29621 100.146 7.80847 100.146 7.12987C100.146 6.45128 99.0756 5.96354 97.3473 5.96354C95.619 5.96354 94.5693 6.46188 94.5693 7.12987C94.5693 7.79787 95.6296 8.29621 97.3473 8.29621ZM100.051 14.6898H94.6753V16.2379H100.051V14.6898Z" fill="#969696"/>
<path d="M157.773 16.7945C157.773 17.8548 156.914 18.7031 155.864 18.7031C154.814 18.7031 153.956 17.8442 153.956 16.7945C153.956 15.7448 154.814 14.886 155.864 14.886C156.914 14.886 157.773 15.7448 157.773 16.7945Z" fill="#969696"/>
<path d="M109.656 16.5083L111.671 14.0908C113.07 15.2465 114.523 15.9781 116.294 15.9781C117.693 15.9781 118.531 15.4268 118.531 14.5149V14.4725C118.531 13.603 118.001 13.1577 115.413 12.5003C112.286 11.7051 110.271 10.8357 110.271 7.75017V7.70775C110.271 4.86614 112.54 3 115.7 3C117.958 3 119.888 3.7104 121.457 4.98277L119.686 7.55931C118.308 6.60504 116.962 6.02187 115.657 6.02187C114.353 6.02187 113.664 6.62624 113.664 7.37906V7.42147C113.664 8.43936 114.332 8.77866 117.004 9.46786C120.153 10.2949 121.924 11.4188 121.924 14.1332V14.1756C121.924 17.2611 119.58 19 116.23 19C113.887 19 111.512 18.173 109.656 16.5083Z" fill="#969696"/>
<path d="M123.196 16.5083L125.211 14.0908C126.61 15.2465 128.063 15.9781 129.844 15.9781C131.244 15.9781 132.081 15.4268 132.081 14.5149V14.4725C132.081 13.603 131.551 13.1577 128.964 12.5003C125.847 11.7051 123.822 10.8357 123.822 7.75017V7.70775C123.822 4.86614 126.08 3 129.24 3C131.498 3 133.428 3.7104 134.997 4.98277L133.227 7.55931C131.859 6.60504 130.502 6.02187 129.197 6.02187C127.893 6.02187 127.204 6.62624 127.204 7.37906V7.42147C127.204 8.43936 127.872 8.77866 130.544 9.46786C133.693 10.2949 135.464 11.4188 135.464 14.1332V14.1756C135.464 17.2611 133.121 19 129.77 19C127.427 19 125.052 18.173 123.196 16.5083Z" fill="#969696"/>
<path d="M151.411 9.62691H144.911V12.6594H148.081V14.8118C147.191 15.4374 146.099 15.8297 144.911 15.8297C142.324 15.8297 140.225 13.5924 140.225 11.0053C140.225 8.41816 142.324 6.31875 144.911 6.31875C146.205 6.31875 147.371 6.8383 148.219 7.68655L150.562 5.34327C149.11 3.89066 147.117 3 144.911 3C140.49 3 136.916 6.58383 136.916 10.9947C136.916 15.4056 140.5 18.9894 144.911 18.9894C147.498 18.9894 149.831 17.9079 151.411 16.2008V9.62691Z" fill="#969696"/>
</svg>
