<?xml version="1.0" encoding="utf-8"?>
<!-- Generator: Adobe Illustrator 24.0.1, SVG Export Plug-In . SVG Version: 6.00 Build 0)  -->
<svg version="1.1" id="Layer_1" xmlns="http://www.w3.org/2000/svg" xmlns:xlink="http://www.w3.org/1999/xlink" x="0px" y="0px"
	 viewBox="0 0 623 409" style="enable-background:new 0 0 623 409;" xml:space="preserve">
<style type="text/css">
	.st0{fill:#FFFFFF;}
	.st1{fill:#FFFFFF;fill-opacity:0.4;}
	.st2{fill:#A1EDFF;}
	.st3{fill:#EAEAEA;}
	.st4{fill:#146AF0;}
	.st5{fill:#0068B6;}
	.st6{fill:#00101D;}
	.st7{enable-background:new    ;}
</style>
<path class="st0" d="M-0.5,42h623v353c0,7.7-6.3,14-14,14h-595c-7.7,0-14-6.3-14-14V42z"/>
<path class="st1" d="M-0.5,14c0-7.7,6.3-14,14-14h595c7.7,0,14,6.3,14,14v28h-623V14z"/>
<circle class="st0" cx="22.5" cy="21" r="8"/>
<circle class="st0" cx="47.5" cy="21" r="8"/>
<circle class="st0" cx="72.5" cy="21" r="8"/>
<path class="st2" d="M298.6,321h129.8c12,0,21.7,9.7,21.7,21.7l0,0c0,12-9.7,21.7-21.7,21.7H298.6c-12,0-21.7-9.7-21.7-21.7l0,0
	C276.9,330.7,286.6,321,298.6,321z"/>
<path class="st3" d="M23.5,125h100c2.2,0,4,1.8,4,4v4c0,2.2-1.8,4-4,4h-100c-2.2,0-4-1.8-4-4v-4C19.5,126.8,21.3,125,23.5,125z"/>
<path class="st3" d="M23.5,149h55c2.2,0,4,1.8,4,4v4c0,2.2-1.8,4-4,4h-55c-2.2,0-4-1.8-4-4v-4C19.5,150.8,21.3,149,23.5,149z"/>
<path class="st3" d="M23.5,173h75c2.2,0,4,1.8,4,4v4c0,2.2-1.8,4-4,4h-75c-2.2,0-4-1.8-4-4v-4C19.5,174.8,21.3,173,23.5,173z"/>
<path class="st4" d="M23.5,197h75c2.2,0,4,1.8,4,4v4c0,2.2-1.8,4-4,4h-75c-2.2,0-4-1.8-4-4v-4C19.5,198.8,21.3,197,23.5,197z"/>
<g>
	<path class="st5" d="M106.5,71c1.7,1,2.9,2.8,2.9,4.8c0,1.3-0.5,2.6-1.4,3.6c-1,1.1-2.6,1.5-4,1.8c-1,0.2-2.2,0.3-3.1,0.8
		c-1,0.4-2.1,1-2.1,2.4h10.9v3.5H94.8v-3.1c0-1.9,0.8-3.6,2.8-4.9c1.4-1,3-1.5,4.7-1.7c1.5-0.3,3.4-0.4,3.4-2.4c0-1.9-2.4-2.5-4-2.4
		c-1.9,0.1-3.2,0.8-4.2,1.9l-2.6-2.4c1.4-1.7,4-3,6.8-3.1C103.4,69.8,105.1,70.2,106.5,71z"/>
	<path class="st5" d="M110.7,80.1c-0.6,0.7-1,1.7-0.6,3.1c0.3,0.8,1,1.6,2.7,1.6h7.4v3.1h3.8v-3.1h3.1v-3.2H124v-9.1
		c0-1.4-1-2.4-2.5-2.5c-1.2-0.1-2.5,0.3-3.3,1.3L110.7,80.1z M120.2,73.9v7.7h-6.5L120.2,73.9z"/>
	<path class="st6" d="M72.3,81h-9.9v7h-3.8V75.1c0-3,1.8-4.9,5.1-4.9H73v3.5h-8.6c-1.5,0-1.9,0.7-1.9,2.1c0,0.3,0,2.1,0,2.1h9.9V81
		H72.3z"/>
	<path class="st6" d="M92.8,77.8c-0.2-1.9-1.3-4-2.6-5.3c-1.7-1.7-4-2.7-6.5-2.7c-5.1,0-9.2,4.1-9.2,9.2c0,3.3,1.7,6.2,4.4,7.8
		c1.5,0.9,3.1,1.3,4.8,1.3c2.5,0,4.9-1,6.5-2.8L87.6,83c-1,0.9-2.4,1.5-3.8,1.5s-2.9-0.6-4-1.7c-0.6-0.6-1-1.3-1.3-1.9h14.1
		C92.7,81,93,79.7,92.8,77.8z M78.3,77.8c0.2-1,0.7-1.9,1.5-2.7c1.8-1.8,4.6-2.2,6.7-1c1.5,0.8,2.4,2.2,2.7,3.7
		C89.1,77.8,78.3,77.8,78.3,77.8z"/>
	<path class="st6" d="M33.3,83.1l2.6,2.7c-1.7,1.7-4.1,2.8-6.8,2.8c-5.3,0-9.5-4.3-9.5-9.6s4.3-9.6,9.6-9.6c2.6,0,5.1,1.1,6.8,2.9
		l-2.9,2.5c-1-1-2.4-1.6-4-1.6c-3.2,0-5.8,2.6-5.8,5.8c0,3.2,2.6,5.8,5.8,5.8C30.8,84.9,32.2,84.2,33.3,83.1z"/>
	<path class="st6" d="M50.9,70.1V72c-1.1-1.4-3.3-2.2-5.3-2.2c-5.1,0-9.2,4.1-9.2,9.2c0,5,4.1,9.1,9,9.1c1.9,0,4.1-0.6,5.4-2.2v1.9
		h3.9V70.1H50.9z M45.6,84.6c-3.1,0-5.6-2.5-5.6-5.6s2.5-5.6,5.6-5.6s5.6,2.5,5.6,5.6C51.2,82.1,48.7,84.6,45.6,84.6z"/>
</g>
<g>
	<g class="st7">
		<path d="M323.5,336.7h3v9.5h5v2.4h-8V336.7z"/>
		<path d="M334.5,348.3c-0.7-0.4-1.2-0.9-1.6-1.6c-0.4-0.7-0.6-1.5-0.6-2.5v0c0-1,0.2-1.8,0.6-2.5c0.4-0.7,0.9-1.2,1.6-1.6
			c0.7-0.4,1.5-0.6,2.4-0.6s1.7,0.2,2.4,0.6c0.7,0.4,1.2,0.9,1.6,1.6s0.5,1.5,0.5,2.4v0.9h-7.5V343h6.1l-1.4,1.6v-1.1
			c0-0.4-0.1-0.8-0.2-1.1c-0.1-0.3-0.3-0.5-0.6-0.7c-0.2-0.2-0.5-0.2-0.9-0.2s-0.6,0.1-0.9,0.2c-0.3,0.2-0.4,0.4-0.6,0.7
			c-0.1,0.3-0.2,0.7-0.2,1.1v1.1c0,0.4,0.1,0.8,0.2,1.1c0.1,0.3,0.3,0.5,0.6,0.7c0.3,0.2,0.6,0.2,0.9,0.2c0.3,0,0.6-0.1,0.8-0.2
			c0.2-0.1,0.4-0.2,0.5-0.4c0.1-0.1,0.2-0.3,0.3-0.4l0,0h2.7l0,0.1c-0.1,0.3-0.2,0.6-0.4,1c-0.2,0.3-0.4,0.7-0.8,1s-0.8,0.5-1.3,0.7
			c-0.5,0.2-1.1,0.3-1.9,0.3C336,348.8,335.2,348.6,334.5,348.3z"/>
		<path d="M344,348.2c-0.5-0.4-0.8-1.2-0.8-2.2v-4.2H342v-2.2h1.2v-2.1h3v2.1h1.6v2.2h-1.6v3.8c0,0.4,0.1,0.7,0.3,0.8
			c0.2,0.2,0.4,0.2,0.8,0.2c0.1,0,0.2,0,0.3,0c0.1,0,0.2,0,0.2,0v2.1c-0.2,0-0.4,0.1-0.6,0.1c-0.2,0-0.5,0-0.8,0
			C345.3,348.8,344.5,348.6,344,348.2z"/>
		<path d="M349.4,336.7h2.7l-1.2,4.9h-2L349.4,336.7z"/>
		<path d="M355,348.5c-0.6-0.2-1.1-0.6-1.4-1c-0.3-0.4-0.5-1-0.6-1.5l0-0.1h2.9l0,0.1c0.1,0.3,0.2,0.5,0.5,0.7
			c0.2,0.2,0.6,0.3,1,0.3c0.3,0,0.5,0,0.7-0.1c0.2-0.1,0.3-0.1,0.4-0.3s0.1-0.2,0.1-0.4v0c0-0.2-0.1-0.4-0.2-0.5
			c-0.2-0.1-0.4-0.2-0.9-0.3l-1.6-0.3c-0.9-0.2-1.6-0.5-2-0.9c-0.5-0.5-0.7-1-0.7-1.7v0c0-0.6,0.2-1.1,0.5-1.6
			c0.3-0.4,0.8-0.8,1.4-1c0.6-0.2,1.3-0.4,2.1-0.4c0.9,0,1.6,0.1,2.2,0.4c0.6,0.3,1,0.6,1.4,1.1c0.3,0.4,0.5,0.9,0.5,1.5v0.1h-2.7
			l0-0.1c0-0.3-0.2-0.5-0.4-0.7c-0.2-0.2-0.5-0.3-1-0.3c-0.2,0-0.4,0-0.6,0.1c-0.2,0.1-0.3,0.2-0.4,0.3c-0.1,0.1-0.1,0.3-0.1,0.4v0
			c0,0.2,0.1,0.4,0.2,0.5c0.2,0.1,0.5,0.2,0.9,0.3l1.6,0.3c1,0.2,1.7,0.5,2.1,0.9s0.7,0.9,0.7,1.6v0c0,0.6-0.2,1.2-0.5,1.6
			c-0.4,0.5-0.8,0.8-1.5,1.1c-0.6,0.2-1.4,0.4-2.2,0.4C356.4,348.8,355.7,348.7,355,348.5z"/>
		<path d="M368.1,348.4c-0.7-0.3-1.3-0.7-1.7-1.2s-0.6-1.2-0.7-2l0-0.2h2.8l0,0.1c0.1,0.3,0.2,0.5,0.4,0.7c0.2,0.2,0.5,0.3,0.8,0.4
			c0.3,0.1,0.7,0.2,1.1,0.2c0.4,0,0.8-0.1,1-0.2c0.3-0.1,0.5-0.3,0.7-0.4c0.2-0.2,0.2-0.4,0.2-0.7v0c0-0.3-0.1-0.6-0.4-0.8
			c-0.3-0.2-0.8-0.3-1.5-0.5l-1.2-0.2c-1.2-0.2-2.1-0.6-2.7-1.2c-0.6-0.6-0.9-1.3-0.9-2.2v0c0-0.8,0.2-1.4,0.6-2
			c0.4-0.6,1-1,1.7-1.3c0.7-0.3,1.5-0.5,2.4-0.5c1,0,1.9,0.1,2.6,0.4c0.7,0.3,1.2,0.7,1.6,1.3c0.4,0.5,0.6,1.2,0.6,1.9l0,0.2h-2.8
			l0-0.1c0-0.3-0.1-0.5-0.3-0.7c-0.2-0.2-0.4-0.3-0.7-0.4s-0.6-0.2-1-0.2c-0.4,0-0.7,0.1-0.9,0.2c-0.3,0.1-0.5,0.2-0.6,0.4
			c-0.1,0.2-0.2,0.4-0.2,0.6v0c0,0.3,0.1,0.6,0.4,0.8c0.3,0.2,0.8,0.3,1.4,0.5l1.2,0.2c1.3,0.2,2.2,0.6,2.8,1.2
			c0.6,0.5,0.9,1.3,0.9,2.3v0c0,0.8-0.2,1.5-0.6,2.1c-0.4,0.6-1,1-1.7,1.4c-0.8,0.3-1.7,0.5-2.7,0.5
			C369.7,348.9,368.8,348.7,368.1,348.4z"/>
		<path d="M378.4,348.2c-0.5-0.4-0.8-1.2-0.8-2.2v-4.2h-1.2v-2.2h1.2v-2.1h3v2.1h1.6v2.2h-1.6v3.8c0,0.4,0.1,0.7,0.3,0.8
			c0.2,0.2,0.4,0.2,0.8,0.2c0.1,0,0.2,0,0.3,0c0.1,0,0.2,0,0.2,0v2.1c-0.2,0-0.4,0.1-0.6,0.1c-0.2,0-0.5,0-0.8,0
			C379.7,348.8,378.9,348.6,378.4,348.2z"/>
		<path d="M384.5,348.4c-0.5-0.2-0.8-0.6-1.1-1c-0.3-0.4-0.4-0.9-0.4-1.4v0c0-0.9,0.3-1.5,1-2c0.6-0.5,1.5-0.7,2.7-0.8l3.6-0.2v1.7
			l-3.1,0.2c-0.4,0-0.7,0.1-0.9,0.3c-0.2,0.2-0.3,0.4-0.3,0.7v0c0,0.3,0.1,0.5,0.3,0.7c0.2,0.2,0.5,0.2,0.9,0.2
			c0.3,0,0.6-0.1,0.8-0.2c0.2-0.1,0.4-0.3,0.6-0.5c0.1-0.2,0.2-0.4,0.2-0.7v-2.8c0-0.3-0.1-0.6-0.3-0.8c-0.2-0.2-0.5-0.3-0.9-0.3
			c-0.4,0-0.7,0.1-0.9,0.2c-0.2,0.2-0.4,0.4-0.4,0.6l0,0.1h-2.7l0-0.1c0-0.6,0.2-1.1,0.6-1.6c0.3-0.4,0.8-0.8,1.4-1
			c0.6-0.2,1.3-0.4,2.2-0.4c0.8,0,1.5,0.1,2.1,0.4c0.6,0.3,1.1,0.6,1.4,1.1c0.3,0.5,0.5,1,0.5,1.6v6.2h-2.9v-1.3h-0.1
			c-0.2,0.3-0.4,0.5-0.6,0.8c-0.3,0.2-0.5,0.4-0.9,0.5c-0.3,0.1-0.7,0.2-1.1,0.2C385.5,348.8,385,348.6,384.5,348.4z"/>
		<path d="M393.1,339.6h2.9v1.6h0.1c0.1-0.6,0.4-1,0.7-1.3s0.8-0.5,1.3-0.5c0.1,0,0.3,0,0.4,0s0.3,0,0.4,0.1v2.5
			c-0.1-0.1-0.3-0.1-0.4-0.1c-0.2,0-0.3,0-0.5,0c-0.4,0-0.8,0.1-1,0.2c-0.3,0.2-0.5,0.4-0.6,0.7c-0.1,0.3-0.2,0.6-0.2,1.1v4.8h-2.9
			V339.6z"/>
		<path d="M401.3,348.2c-0.5-0.4-0.8-1.2-0.8-2.2v-4.2h-1.2v-2.2h1.2v-2.1h3v2.1h1.6v2.2h-1.6v3.8c0,0.4,0.1,0.7,0.3,0.8
			c0.2,0.2,0.4,0.2,0.8,0.2c0.1,0,0.2,0,0.3,0c0.1,0,0.2,0,0.2,0v2.1c-0.2,0-0.4,0.1-0.6,0.1c-0.2,0-0.5,0-0.8,0
			C402.7,348.8,401.9,348.6,401.3,348.2z"/>
	</g>
</g>
</svg>
