<svg xmlns="http://www.w3.org/2000/svg" xmlns:xlink="http://www.w3.org/1999/xlink" width="315.89pt" height="91.96pt" viewBox="0 0 315.89 91.96" version="1.1">
<path fill="#AB2023" d="M 229.773438 11.179688 C 221.160156 17.664063 215.921875 26.164063 213.964844 36.589844 L 236.28125 78.777344 C 238.117188 82.21875 239.519531 84.398438 240.554688 85.40625 C 240.554688 85.40625 241.976563 87.011719 245.316406 88.957031 C 251.085938 90.726563 257.390625 91.597656 264.316406 91.597656 C 278.183594 91.597656 289.683594 88.066406 298.855469 81.003906 C 309.917969 72.484375 315.457031 61.066406 315.457031 46.8125 C 315.457031 31.570313 309.917969 19.691406 298.855469 11.179688 C 289.597656 4.09375 278.042969 0.570313 264.171875 0.570313 C 250.441406 0.734375 238.984375 4.253906 229.773438 11.179688 M 242.277344 66.335938 C 237.015625 60.957031 234.394531 54.191406 234.394531 46.085938 C 234.394531 37.925781 237.015625 31.15625 242.277344 25.761719 C 247.9375 19.984375 255.269531 17.101563 264.242188 17.101563 C 273.226563 17.1875 280.585938 20.078125 286.296875 25.761719 C 291.53125 30.992188 294.148438 37.890625 294.148438 46.460938 C 294.148438 54.378906 291.53125 60.976563 286.296875 66.335938 C 280.617188 72.179688 273.296875 75.078125 264.316406 75.078125 C 255.292969 75.078125 247.9375 72.179688 242.277344 66.335938 "></path>
<path fill="#AB2023" d="M 165.074219 2.453125 L 165.074219 4.621094 C 167.976563 5.8125 169.445313 7.464844 169.445313 9.59375 C 169.445313 10.480469 168.472656 13.417969 168.175781 14.476563 C 168.175781 14.476563 178.996094 32.121094 163.683594 47.425781 C 158.445313 52.667969 149.308594 53.355469 149.308594 53.355469 L 135.753906 80.511719 C 134.445313 83.128906 133.347656 84.855469 132.371094 85.746094 C 131.40625 86.636719 129.953125 87.234375 127.96875 87.542969 L 127.96875 89.71875 L 160.136719 89.71875 L 160.136719 87.542969 C 156.820313 86.882813 155.144531 85.285156 155.144531 82.804688 C 155.144531 81.457031 155.675781 79.683594 156.78125 77.421875 L 161.292969 67.890625 L 201.410156 67.890625 L 206.226563 76.847656 C 207.550781 79.207031 208.199219 81.167969 208.199219 82.804688 C 208.199219 85.394531 206.492188 86.96875 203.109375 87.542969 L 203.109375 89.71875 L 238.757813 89.71875 L 238.757813 87.542969 C 236.609375 87.097656 235.035156 86.421875 233.992188 85.40625 C 232.96875 84.398438 231.546875 82.21875 229.726563 78.777344 L 196.664063 16.230469 C 195.34375 13.738281 194.683594 11.621094 194.683594 9.902344 C 194.683594 7.535156 196.144531 5.773438 199.015625 4.621094 L 199.015625 2.453125 Z M 180.855469 27.640625 L 195.132813 55.652344 L 167.273438 55.652344 Z M 180.855469 27.640625 "></path>
<path fill="#AB2023" d="M 14.300781 7.425781 C 6.097656 12.457031 1.988281 19.78125 1.988281 29.3125 C 1.988281 33.59375 2.941406 37.511719 4.816406 41.105469 C 6.652344 44.683594 9.273438 47.5 12.605469 49.617188 C 15.199219 51.214844 18.234375 52.429688 21.71875 53.273438 C 25.21875 54.105469 30.246094 54.761719 36.816406 55.285156 L 49.082031 56.308594 C 55.578125 56.878906 60.089844 57.582031 62.558594 58.398438 C 66.320313 59.652344 68.167969 61.863281 68.167969 65.039063 C 68.167969 69.003906 65.480469 71.855469 60.089844 73.621094 C 55.703125 75.078125 50.769531 75.804688 45.25 75.804688 C 39.027344 75.804688 32.71875 74.957031 26.3125 73.289063 C 19.894531 71.578125 15.398438 69.589844 12.8125 67.316406 C 11.78125 66.363281 11.257813 65.222656 11.257813 63.894531 L 11.257813 63.265625 L 9.304688 62.480469 L 0.332031 83.839844 L 2.289063 84.585938 C 3.175781 83.347656 4.132813 82.722656 5.160156 82.722656 C 5.734375 82.722656 6.433594 82.90625 7.253906 83.269531 C 19.550781 88.8125 32.257813 91.597656 45.402344 91.597656 C 58.441406 91.597656 68.800781 89.140625 76.453125 84.179688 C 84.433594 79.050781 88.4375 72.046875 88.4375 63.15625 C 88.4375 58.261719 87.144531 53.886719 84.628906 49.976563 C 82.601563 46.871094 80.019531 44.378906 76.921875 42.492188 C 71.289063 39.171875 63.101563 37.113281 52.316406 36.28125 L 40.007813 35.355469 C 32.257813 34.714844 27.027344 33.886719 24.335938 32.800781 C 21.640625 31.734375 20.269531 29.929688 20.269531 27.402344 C 20.269531 23.53125 23.070313 20.601563 28.695313 18.570313 C 32.589844 17.1875 37.078125 16.484375 42.089844 16.484375 C 48.03125 16.484375 53.882813 17.3125 59.644531 19.066406 C 65.40625 20.75 69.792969 22.945313 72.746094 25.582031 C 73.832031 26.582031 74.375 27.929688 74.375 29.644531 L 76.246094 30.648438 L 86.921875 10.253906 L 90.867188 12.363281 L 83.007813 27.507813 L 83.007813 42.714844 C 85.964844 44.554688 88.464844 46.964844 90.417969 49.976563 C 92.941406 53.886719 94.242188 58.261719 94.242188 63.15625 C 94.242188 71.855469 90.367188 78.703125 82.722656 83.859375 C 82.722656 83.859375 79.417969 86.082031 78.019531 86.636719 L 78.019531 89.71875 L 108.855469 89.71875 L 108.855469 87.542969 C 107.007813 86.957031 105.695313 86.238281 104.96875 85.394531 C 104.261719 84.53125 103.859375 83.308594 103.859375 81.710938 L 103.859375 53.773438 L 130.753906 53.773438 C 142.949219 53.773438 152.023438 51.65625 157.941406 47.421875 C 163.859375 43.21875 166.8125 36.757813 166.8125 28.085938 C 166.8125 23.589844 165.890625 19.519531 164.019531 15.886719 C 162.144531 12.273438 159.539063 9.476563 156.210938 7.488281 C 150.484375 4.144531 142.015625 2.457031 130.753906 2.457031 L 78.019531 2.457031 L 78.019531 4.621094 C 78.019531 4.621094 83.007813 5.417969 82.816406 8.503906 L 82.816406 10.757813 C 82.453125 10.929688 82.03125 11.019531 81.707031 11.019531 C 80.875 11.019531 79.382813 10.480469 77.292969 9.535156 C 70.085938 6.203125 63.921875 3.902344 58.773438 2.542969 C 53.59375 1.242188 48.03125 0.570313 42.0625 0.570313 C 31.039063 0.570313 21.78125 2.867188 14.300781 7.425781 M 103.859375 18.238281 L 129.496094 18.238281 C 134.960938 18.238281 138.742188 18.742188 140.824219 19.78125 C 143.925781 21.285156 145.503906 24.058594 145.503906 28.085938 C 145.503906 32.152344 143.925781 34.902344 140.824219 36.425781 C 138.734375 37.460938 134.910156 37.988281 129.496094 37.988281 L 103.859375 37.988281 Z M 103.859375 18.238281 "></path>
</svg>
