


<svg version="1.1" id="svg2" xml:space="preserve" width="216.7065" height="46.005867" viewBox="0 0 216.7065 46.005867" xmlns="http://www.w3.org/2000/svg"><defs id="defs6"><clipPath clipPathUnits="userSpaceOnUse" id="clipPath16"><path d="M 0,595.28 H 419.53 V 0 H 0 Z" id="path14"></path></clipPath></defs><g id="g8" transform="matrix(1.3333333,0,0,-1.3333333,-165.76216,418.16346)"><g id="g10"><g id="g12" clip-path="url(#clipPath16)"><g id="g86" transform="translate(167.7534,285.5498)"><path d="M 0,0 H 4.687 V -0.996 H 1.111 v -1.643 h 3.17 V -3.633 H 1.111 V -5.332 H 4.732 V -6.326 H 0 Z" style="fill:#1a345c;fill-opacity:1;fill-rule:nonzero;stroke:none" id="path88"></path></g><g id="g90" transform="translate(180.1465,282.4385)"><path d="m 0,0 -2.214,3.111 h 1.309 L 0.668,0.842 2.248,3.111 H 3.521 L 1.319,0.021 3.613,-3.215 H 2.303 L 0.64,-0.82 -1.031,-3.215 h -1.272 z" style="fill:#1a345c;fill-opacity:1;fill-rule:nonzero;stroke:none" id="path92"></path></g><g id="g94" transform="translate(191.8247,282.2588)"><path d="M 0,0 C 0.839,0 1.363,0.469 1.363,1.131 V 1.146 C 1.363,1.889 0.831,2.279 0,2.279 H -1.292 V 0 Z m -2.404,3.291 h 2.493 c 1.474,0 2.405,-0.84 2.405,-2.117 V 1.154 C 2.494,-0.258 1.354,-1 -0.037,-1 h -1.255 v -2.035 h -1.112 z" style="fill:#1a345c;fill-opacity:1;fill-rule:nonzero;stroke:none" id="path96"></path></g><g id="g98" transform="translate(199.9722,285.5498)"><path d="M 0,0 H 4.687 V -0.996 H 1.111 V -2.639 H 4.28 V -3.633 H 1.111 V -5.332 H 4.734 V -6.326 H 0 Z" style="fill:#1a345c;fill-opacity:1;fill-rule:nonzero;stroke:none" id="path100"></path></g><g id="g102" transform="translate(212.8975,280.2373)"><path d="M 0,0 C 1.327,0 2.196,0.895 2.196,2.131 V 2.148 C 2.196,3.385 1.327,4.297 0,4.297 H -1.245 V 0 Z M -2.358,5.313 H 0 c 1.988,0 3.358,-1.37 3.358,-3.145 V 2.148 C 3.358,0.369 1.988,-1.014 0,-1.014 h -2.358 z" style="fill:#1a345c;fill-opacity:1;fill-rule:nonzero;stroke:none" id="path104"></path></g><path d="m 222.181,285.55 h 1.114 v -6.326 h -1.114 z" style="fill:#1a345c;fill-opacity:1;fill-rule:nonzero;stroke:none" id="path106"></path><g id="g108" transform="translate(231.0527,284.5166)"><path d="m 0,0 h -2.005 v 1.033 h 5.13 V 0 H 1.12 V -5.293 H 0 Z" style="fill:#1a345c;fill-opacity:1;fill-rule:nonzero;stroke:none" id="path110"></path></g><path d="m 239.931,285.55 h 1.109 v -6.326 h -1.109 z" style="fill:#1a345c;fill-opacity:1;fill-rule:nonzero;stroke:none" id="path112"></path><g id="g114" transform="translate(252.417,282.3682)"><path d="M 0,0 V 0.018 C 0,1.248 -0.896,2.27 -2.151,2.27 -3.408,2.27 -4.284,1.266 -4.284,0.037 V 0.018 c 0,-1.227 0.895,-2.248 2.152,-2.248 C -0.878,-2.23 0,-1.229 0,0 m -5.448,0 v 0.018 c 0,1.779 1.371,3.269 3.316,3.269 1.941,0 3.295,-1.474 3.295,-3.25 V 0.018 c 0,-1.78 -1.373,-3.268 -3.314,-3.268 -1.943,0 -3.297,1.471 -3.297,3.25" style="fill:#1a345c;fill-opacity:1;fill-rule:nonzero;stroke:none" id="path116"></path></g><g id="g118" transform="translate(259.4434,285.5498)"><path d="M 0,0 H 1.028 L 4.415,-4.373 V 0 H 5.509 V -6.326 H 4.577 L 1.091,-1.828 V -6.326 H 0 Z" style="fill:#1a345c;fill-opacity:1;fill-rule:nonzero;stroke:none" id="path120"></path></g><g id="g122" transform="translate(134.3145,292.6006)"><path d="m 0,0 h -0.958 l 1.335,1.486 -1.279,1.43 H 0.083 L 1.271,1.508 Z m 2.351,0.506 c 0.039,0.469 0.223,0.881 0.4,1.283 0.08,0.18 0.156,0.356 0.215,0.525 0.092,0.26 0.153,0.534 0.22,0.819 0.074,0.326 0.151,0.664 0.278,0.994 0.31,0.801 1.014,1.34 1.636,1.819 0.138,0.103 0.267,0.203 0.391,0.303 0.757,0.611 1.662,1.156 2.619,1.579 0.017,0.009 0.069,0.04 0.164,0.095 -0.391,3.835 -3.191,7.154 -7.162,8.018 -2.419,0.525 -4.821,0.039 -6.771,-1.168 0.361,0.017 0.744,0.044 1.089,0.064 0.443,0.027 0.824,0.053 1.093,0.056 0.314,0.007 0.731,0.064 1.173,0.124 0.822,0.119 1.672,0.236 2.294,0.086 1.314,-0.313 2.436,-1.364 3.148,-2.191 0.21,-0.243 0.44,-0.469 0.683,-0.709 0.357,-0.352 0.726,-0.715 1.032,-1.14 C 4.994,10.867 5.154,10.597 5.138,10.272 5.098,9.546 4.377,9.061 3.903,8.743 L 3.801,8.676 C 3.555,8.506 3.295,8.353 3.045,8.207 2.595,7.941 2.167,7.685 1.813,7.356 1.561,7.12 1.437,6.854 1.28,6.522 1.202,6.354 1.121,6.185 1.016,5.999 0.237,4.629 -1.266,4.063 -2.592,3.564 -2.881,3.455 -3.155,3.352 -3.419,3.242 -4.676,2.717 -5.678,1.33 -6.123,-0.486 c 0.975,-0.688 2.101,-1.2 3.341,-1.465 2.146,-0.471 4.279,-0.143 6.095,0.781 -0.461,0.375 -1.023,0.981 -0.962,1.676" style="fill:#1a345c;fill-opacity:1;fill-rule:nonzero;stroke:none" id="path124"></path></g><g id="g126" transform="translate(129.4668,302.1714)"><path d="m 0,0 c -0.149,0.933 -0.491,0.954 -1.314,1.007 l -0.248,0.016 c -0.73,0.054 -1.66,0.379 -2.406,0.639 l -0.115,0.036 c -0.379,-0.715 -0.67,-1.495 -0.85,-2.327 -0.438,-2.006 -0.18,-4 0.609,-5.733 0.734,1.868 1.919,3.046 2.892,4.01 C -0.525,-1.451 0.129,-0.799 0,0" style="fill:#1a345c;fill-opacity:1;fill-rule:nonzero;stroke:none" id="path128"></path></g><g id="g130" transform="translate(139.8501,297.9878)"><path d="m 0,0 c -0.575,-0.439 -1.17,-0.892 -1.408,-1.511 -0.108,-0.281 -0.177,-0.585 -0.25,-0.9 -0.067,-0.293 -0.135,-0.595 -0.24,-0.894 -0.07,-0.194 -0.154,-0.389 -0.237,-0.574 -0.161,-0.364 -0.313,-0.709 -0.343,-1.061 -0.032,-0.381 0.412,-0.879 0.924,-1.24 2.038,1.263 3.583,3.312 4.133,5.84 C 2.732,0.365 2.796,1.07 2.784,1.762 1.915,1.371 1.09,0.871 0.404,0.314 0.272,0.209 0.134,0.103 0,0" style="fill:#1a345c;fill-opacity:1;fill-rule:nonzero;stroke:none" id="path132"></path></g><g id="g134" transform="translate(129.124,298.6255)"><path d="m 0,0 c 0.439,0.333 0.983,0.719 1.659,1.027 0.245,0.114 0.482,0.244 0.734,0.376 0.216,0.117 0.44,0.24 0.67,0.35 0.642,0.306 1.185,0.609 1.372,1.213 L 4.489,3.143 C 4.661,3.708 4.824,4.244 5.181,4.782 5.538,5.32 5.515,5.477 5.031,5.913 4.602,6.302 4.35,6.435 3.859,6.531 3.244,6.654 2.49,6.508 1.825,6.385 L 1.787,6.375 C 0.317,6.096 -1.541,6.292 -2.919,6.531 -3.083,6.314 -3.239,6.096 -3.383,5.866 -2.713,5.633 -1.8,5.317 -1.166,5.268 L -0.927,5.254 C -0.075,5.201 0.807,5.144 1.045,3.655 1.23,2.501 0.388,1.667 -0.587,0.699 -1.614,-0.319 -2.884,-1.585 -3.53,-3.681 -3.313,-4.05 -3.071,-4.406 -2.802,-4.742 -2.416,-3.33 -1.601,-1.22 0,0" style="fill:#1a345c;fill-opacity:1;fill-rule:nonzero;stroke:none" id="path136"></path></g><g id="g138" transform="translate(130.6206,296.4878)"><path d="m 0,0 c 0.273,0.116 0.567,0.226 0.849,0.332 1.274,0.483 2.591,0.979 3.243,2.125 0.092,0.163 0.165,0.32 0.24,0.476 0.166,0.348 0.337,0.714 0.686,1.044 0.411,0.388 0.893,0.671 1.359,0.949 0.25,0.148 0.488,0.285 0.715,0.441 L 7.197,5.439 C 7.556,5.68 8.101,6.045 8.122,6.421 8.127,6.531 8.036,6.67 7.968,6.77 7.697,7.146 7.365,7.475 7.013,7.818 6.772,8.057 6.521,8.303 6.292,8.569 5.766,9.181 4.704,10.251 3.519,10.534 3.025,10.65 2.21,10.537 1.489,10.435 1.023,10.371 0.585,10.308 0.228,10.305 -0.025,10.301 -0.415,10.275 -0.83,10.248 -1.572,10.198 -2.403,10.145 -2.953,10.178 -3.285,9.906 -3.598,9.613 -3.889,9.293 -2.743,9.121 -1.108,8.961 0.155,9.204 l 0.04,0.007 C 0.923,9.35 1.75,9.507 2.5,9.36 3.193,9.221 3.553,8.987 4.013,8.573 4.758,7.897 4.829,7.369 4.278,6.534 3.977,6.082 3.837,5.617 3.672,5.078 L 3.617,4.898 C 3.328,3.953 2.453,3.531 1.878,3.259 1.663,3.156 1.446,3.035 1.236,2.923 0.985,2.79 0.728,2.65 0.462,2.527 -0.035,2.302 -0.477,2.025 -1.063,1.58 -2.747,0.296 -3.49,-2.221 -3.732,-3.252 -3.513,-3.479 -3.281,-3.694 -3.037,-3.901 -2.501,-2.018 -1.391,-0.575 0,0" style="fill:#1a345c;fill-opacity:1;fill-rule:nonzero;stroke:none" id="path140"></path></g><g id="g142" transform="translate(280.9072,284.2432)"><path d="M 0,0 H 0.366 L 0.906,-1.594 1.443,0 h 0.36 V -1.883 H 1.561 v 1.11 c 0,0.039 0,0.099 0.002,0.189 0.004,0.09 0.004,0.186 0.004,0.283 L 1.03,-1.883 H 0.778 l -0.543,1.582 v -0.053 c 0,-0.044 0,-0.117 0.006,-0.207 0,-0.095 0.004,-0.169 0.004,-0.212 v -1.11 H 0 Z M -0.229,0 V -0.229 H -0.86 v -1.654 h -0.257 v 1.654 H -1.748 V 0 Z" style="fill:#1a345c;fill-opacity:1;fill-rule:nonzero;stroke:none" id="path144"></path></g><g id="g146" transform="translate(282.6855,307.8096)"><path d="M 0,0 -4.476,-12.805 -8.652,0 h -4.269 l 6.487,-17.344 -0.05,-0.119 c 0,0 -1.306,-3.535 -2.489,-4.392 -0.911,-0.465 -3.044,-0.432 -3.849,-0.379 V -25.5 c 1.408,0 4.721,-0.094 5.79,0.582 1.338,0.85 1.636,1.215 2.553,3.068 C -3.483,-19.826 4.166,0 4.166,0 Z m -20.902,-2.886 v 2.883 h -4 v -17.464 h 4 v 6.651 c 0,1.168 0.109,2.195 0.432,3.039 1.2,3.179 4.562,4.08 6.3,4.339 l -1.372,3.335 c -1.396,-0.239 -3.854,-0.914 -5.36,-2.783 m -68.895,-11.495 c -3.077,0 -5.225,2.51 -5.225,5.653 0,3.076 2.115,5.59 5.025,5.59 2.018,0 3.308,-0.891 4.53,-2.186 l 2.481,2.681 c -1.623,1.785 -3.67,3.006 -6.978,3.006 -5.224,0 -9.057,-4.163 -9.057,-9.154 0,-4.994 3.833,-9.063 9.024,-9.063 3.407,0 5.423,1.358 7.14,3.274 l -2.412,2.381 c -1.258,-1.291 -2.644,-2.182 -4.528,-2.182 m 57.935,7.29 c -0.069,0.636 -0.209,0.82 -0.433,1.383 -0.22,0.564 -0.518,1.053 -0.89,1.472 -0.38,0.419 -0.824,0.745 -1.34,0.974 -0.517,0.23 -1.109,0.349 -1.773,0.349 -1.233,0 -2.254,-0.425 -3.056,-1.273 -0.804,-0.851 -1.298,-1.536 -1.473,-2.905 z m 3.435,1.648 c 0.356,-1.138 0.531,-2.334 0.531,-3.592 0,-0.175 -0.002,-0.355 -0.016,-0.545 -0.009,-0.185 -0.026,-0.378 -0.048,-0.574 h -12.835 c 0.221,-1.434 0.79,-2.535 1.706,-3.295 0.913,-0.758 2.022,-1.143 3.323,-1.143 0.992,0 1.853,0.182 2.581,0.531 0.728,0.356 1.444,0.87 2.145,1.559 l 2.354,-2.09 c -0.845,-0.99 -1.84,-1.785 -3,-2.379 -1.154,-0.595 -2.537,-0.896 -4.146,-0.896 -1.257,0 -2.431,0.224 -3.522,0.662 -1.091,0.445 -2.041,1.062 -2.846,1.853 -0.805,0.793 -1.44,1.745 -1.9,2.864 -0.464,1.113 -0.693,2.344 -0.693,3.687 v 0.069 c 0,1.254 0.206,2.436 0.625,3.539 0.418,1.1 1.011,2.065 1.771,2.892 0.759,0.828 1.657,1.477 2.695,1.949 1.036,0.476 2.181,0.712 3.438,0.712 1.391,0 2.61,-0.253 3.656,-0.759 1.048,-0.508 1.919,-1.19 2.613,-2.051 0.697,-0.862 1.22,-1.859 1.568,-2.993 m -25.685,-7.395 -4.697,12.835 h -4.299 l 7.179,-17.597 h 3.604 l 7.142,17.597 h -4.199 z m -13.161,4.07 c 0,0.775 -0.133,1.5 -0.399,2.185 -0.264,0.681 -0.632,1.277 -1.109,1.785 -0.471,0.506 -1.033,0.908 -1.684,1.207 -0.651,0.296 -1.375,0.446 -2.168,0.446 -0.795,0 -1.516,-0.15 -2.166,-0.446 -0.649,-0.299 -1.206,-0.695 -1.67,-1.193 -0.463,-0.496 -0.816,-1.078 -1.059,-1.749 -0.243,-0.675 -0.364,-1.396 -0.364,-2.169 v -0.066 c 0,-0.749 0.133,-1.466 0.396,-2.151 0.265,-0.683 0.634,-1.28 1.11,-1.802 0.471,-0.519 1.033,-0.925 1.688,-1.22 0.649,-0.299 1.36,-0.45 2.133,-0.45 0.814,0 1.546,0.151 2.196,0.45 0.654,0.295 1.209,0.697 1.671,1.207 0.464,0.505 0.815,1.093 1.058,1.768 0.244,0.672 0.367,1.383 0.367,2.132 z m 3.306,3.591 c 0.463,-1.094 0.696,-2.268 0.696,-3.525 v -0.066 c 0,-1.233 -0.242,-2.404 -0.711,-3.503 -0.478,-1.106 -1.125,-2.073 -1.953,-2.899 -0.828,-0.826 -1.815,-1.478 -2.959,-1.969 -1.149,-0.484 -2.395,-0.728 -3.739,-0.728 -1.324,0 -2.551,0.236 -3.688,0.713 -1.137,0.474 -2.117,1.119 -2.944,1.935 -0.826,0.819 -1.47,1.776 -1.934,2.881 -0.463,1.099 -0.696,2.269 -0.696,3.504 v 0.066 c 0,1.257 0.238,2.438 0.713,3.541 0.472,1.101 1.124,2.065 1.951,2.893 0.826,0.828 1.81,1.483 2.943,1.965 1.137,0.489 2.377,0.729 3.723,0.729 1.344,0 2.584,-0.236 3.72,-0.712 1.134,-0.472 2.117,-1.121 2.943,-1.949 0.827,-0.827 1.473,-1.788 1.935,-2.876 m -38.625,-3.642 c -0.517,0.387 -1.096,0.712 -1.737,0.979 -0.64,0.262 -1.277,0.495 -1.919,0.69 -0.507,0.182 -0.996,0.344 -1.469,0.5 -0.475,0.153 -0.895,0.325 -1.258,0.512 -0.364,0.189 -0.657,0.396 -0.877,0.629 -0.22,0.229 -0.331,0.502 -0.331,0.814 v 0.06 c 0,0.509 0.215,0.928 0.646,1.257 0.43,0.333 1.031,0.496 1.803,0.496 0.727,0 1.52,-0.15 2.38,-0.447 0.859,-0.296 1.709,-0.697 2.548,-1.202 l 1.586,2.842 c -0.925,0.618 -1.948,1.101 -3.076,1.454 -1.122,0.355 -2.237,0.531 -3.341,0.531 -0.858,0 -1.667,-0.123 -2.429,-0.366 -0.761,-0.242 -1.421,-0.595 -1.985,-1.06 -0.563,-0.459 -1.005,-1.018 -1.322,-1.666 -0.321,-0.655 -0.481,-1.397 -0.481,-2.235 v -0.063 c 0,-0.841 0.165,-1.546 0.496,-2.122 0.331,-0.571 0.755,-1.05 1.274,-1.436 0.519,-0.389 1.104,-0.701 1.752,-0.944 0.651,-0.239 1.296,-0.451 1.935,-0.628 0.507,-0.156 1,-0.303 1.472,-0.447 0.473,-0.145 0.892,-0.305 1.257,-0.495 0.364,-0.185 0.651,-0.402 0.861,-0.645 0.208,-0.242 0.312,-0.527 0.312,-0.861 v -0.062 c 0,-0.577 -0.238,-1.032 -0.711,-1.373 -0.473,-0.348 -1.139,-0.518 -2,-0.518 -0.903,0 -1.846,0.184 -2.826,0.551 -0.982,0.361 -1.949,0.896 -2.895,1.601 l -1.787,-2.713 c 1.102,-0.857 2.298,-1.509 3.589,-1.953 1.29,-0.437 2.562,-0.656 3.821,-0.656 0.903,0 1.751,0.111 2.547,0.344 0.791,0.228 1.483,0.574 2.066,1.025 0.584,0.455 1.042,1.02 1.373,1.703 0.332,0.684 0.495,1.493 0.495,2.418 v 0.061 c 0,0.799 -0.163,1.471 -0.495,2.02 -0.331,0.555 -0.758,1.019 -1.274,1.405 m -18.848,-8.648 h 4.004 v 17.464 h -4.004 z m -2.317,11.737 c 0,-6.541 -5.026,-11.6 -12.301,-11.6 h -7.037 c 1.422,0.951 2.607,2.213 3.456,3.703 h 3.581 c 4.86,0 8.035,3.273 8.035,7.835 0,4.559 -3.175,7.9 -8.035,7.9 h -4.561 v -3.404 c -0.672,0.834 -1.452,1.572 -2.334,2.184 -0.544,0.373 -1.125,0.695 -1.733,0.967 v 3.958 h 8.628 c 7.275,0 12.301,-4.994 12.301,-11.543" style="fill:#1a345c;fill-opacity:1;fill-rule:nonzero;stroke:none" id="path148"></path></g></g></g></g></svg>
