<?xml version="1.0" encoding="utf-8"?>
<!-- Generator: Adobe Illustrator 24.0.1, SVG Export Plug-In . SVG Version: 6.00 Build 0)  -->
<svg version="1.1" id="Layer_1" xmlns="http://www.w3.org/2000/svg" xmlns:xlink="http://www.w3.org/1999/xlink" x="0px" y="0px"
	 viewBox="0 0 623 409" style="enable-background:new 0 0 623 409;" xml:space="preserve">
<style type="text/css">
	.st0{fill:#FFFFFF;}
	.st1{fill:#FFFFFF;fill-opacity:0.4;}
	.st2{fill:#EAEAEA;}
	.st3{fill:#146AF0;}
	.st4{fill:#A7FF9F;}
	.st5{fill:#0068B6;}
	.st6{fill:#00101D;}
	.st7{fill:#13A9FE;}
	.st8{enable-background:new    ;}
</style>
<path class="st0" d="M-0.5,42.5h623v353c0,7.7-6.3,14-14,14h-595c-7.7,0-14-6.3-14-14V42.5z"/>
<path class="st1" d="M0,14C0,6.3,6.3,0,14,0h595c7.7,0,14,6.3,14,14v28H0V14z"/>
<circle class="st0" cx="23" cy="21" r="8"/>
<circle class="st0" cx="48" cy="21" r="8"/>
<circle class="st0" cx="73" cy="21" r="8"/>
<path class="st2" d="M24,125h100c2.2,0,4,1.8,4,4v4c0,2.2-1.8,4-4,4H24c-2.2,0-4-1.8-4-4v-4C20,126.8,21.8,125,24,125z"/>
<path class="st3" d="M24,149h55c2.2,0,4,1.8,4,4v4c0,2.2-1.8,4-4,4H24c-2.2,0-4-1.8-4-4v-4C20,150.8,21.8,149,24,149z"/>
<path class="st2" d="M24,173h75c2.2,0,4,1.8,4,4v4c0,2.2-1.8,4-4,4H24c-2.2,0-4-1.8-4-4v-4C20,174.8,21.8,173,24,173z"/>
<path class="st2" d="M24,197h75c2.2,0,4,1.8,4,4v4c0,2.2-1.8,4-4,4H24c-2.2,0-4-1.8-4-4v-4C20,198.8,21.8,197,24,197z"/>
<path class="st4" d="M196.1,633h129.8c12,0,21.7,9.7,21.7,21.7l0,0c0,12-9.7,21.7-21.7,21.7H196.1c-12,0-21.7-9.7-21.7-21.7l0,0
	C174.4,642.7,184.1,633,196.1,633z"/>
<g>
	<circle class="st0" cx="23.3" cy="21.1" r="8"/>
	<circle class="st0" cx="48.3" cy="21.1" r="8"/>
	<circle class="st0" cx="73.3" cy="21.1" r="8"/>
	<g>
		<path class="st5" d="M107.3,71.2c1.7,1,2.9,2.8,2.9,4.8c0,1.3-0.5,2.6-1.4,3.6c-1,1.1-2.6,1.5-4,1.8c-1,0.2-2.2,0.3-3.1,0.8
			c-1,0.4-2.1,1-2.1,2.4h10.9v3.5H95.6V85c0-1.9,0.8-3.6,2.8-4.9c1.4-1,3-1.5,4.7-1.7c1.5-0.3,3.4-0.4,3.4-2.4c0-1.9-2.4-2.5-4-2.4
			c-1.9,0.1-3.2,0.8-4.2,1.9L95.7,73c1.4-1.7,4-3,6.8-3.1C104.2,70,106,70.3,107.3,71.2z"/>
		<path class="st5" d="M111.5,80.3c-0.6,0.7-1,1.7-0.6,3.1c0.3,0.8,1,1.6,2.7,1.6h7.4v3.1h3.8V85h3.1v-3.2h-3.1v-9.1
			c0-1.4-1-2.4-2.5-2.5c-1.2-0.1-2.5,0.3-3.3,1.3L111.5,80.3z M121,74v7.7h-6.5L121,74z"/>
		<path class="st6" d="M73.1,81.2h-9.9v7h-3.8V75.3c0-3,1.8-4.9,5.1-4.9h9.3v3.5h-8.6c-1.5,0-1.9,0.7-1.9,2.1c0,0.3,0,2.1,0,2.1h9.9
			v3.1H73.1z"/>
		<path class="st6" d="M93.6,78c-0.2-1.9-1.3-4-2.6-5.3C89.3,71,87,70,84.5,70c-5.1,0-9.2,4.1-9.2,9.2c0,3.3,1.7,6.2,4.4,7.8
			c1.5,0.9,3.1,1.3,4.8,1.3c2.5,0,4.9-1,6.5-2.8l-2.6-2.4c-1,0.9-2.4,1.5-3.8,1.5s-2.9-0.6-4-1.7c-0.6-0.6-1-1.3-1.3-1.9h14.1
			C93.5,81.2,93.8,79.9,93.6,78z M79.1,78c0.2-1,0.7-1.9,1.5-2.7c1.8-1.8,4.6-2.2,6.7-1c1.5,0.8,2.4,2.2,2.7,3.7
			C90,78,79.1,78,79.1,78z"/>
		<path class="st6" d="M34.1,83.3l2.6,2.7c-1.7,1.7-4.1,2.8-6.8,2.8c-5.3,0-9.5-4.3-9.5-9.6s4.3-9.6,9.6-9.6c2.6,0,5.1,1.1,6.8,2.9
			L33.9,75c-1-1-2.4-1.6-4-1.6c-3.2,0-5.8,2.6-5.8,5.8s2.6,5.8,5.8,5.8C31.6,85,33,84.3,34.1,83.3z"/>
		<path class="st6" d="M51.8,70.3v1.9c-1.1-1.4-3.3-2.2-5.3-2.2c-5.1,0-9.2,4.1-9.2,9.2c0,5,4.1,9.1,9,9.1c1.9,0,4.1-0.6,5.4-2.2V88
			h3.9V70.3H51.8z M46.4,84.7c-3.1,0-5.6-2.5-5.6-5.6s2.5-5.6,5.6-5.6S52,76,52,79.1S49.5,84.7,46.4,84.7z"/>
	</g>
</g>
<text transform="matrix(1 0 0 1 220.3731 660.6362)" style="font-family:'NotoSansKR-Bold-KSCpc-EUC-H'; font-size:17px;">Let’s Start</text>
<path class="st7" d="M514.7,138H216.9c-10.2,0-18.5-6.7-18.5-15V98c0-8.3,8.3-15,18.5-15h297.8c10.2,0,18.5,6.7,18.5,15V123
	C533.2,131.3,524.9,138,514.7,138z"/>
<g>
	<g class="st8">
		<path class="st0" d="M252.2,105.5h2.4v4.6h0c0.2-0.6,0.6-1,1-1.3c0.5-0.3,1-0.4,1.7-0.4c0.6,0,1.2,0.1,1.7,0.4s0.8,0.7,1.1,1.2
			c0.3,0.5,0.4,1.1,0.4,1.9v5.6h-2.4v-5.1c0-0.6-0.1-1.1-0.4-1.5s-0.7-0.5-1.3-0.5c-0.4,0-0.7,0.1-0.9,0.3c-0.3,0.2-0.5,0.4-0.6,0.7
			c-0.1,0.3-0.2,0.6-0.2,1v5.1h-2.4V105.5z"/>
		<path class="st0" d="M263.5,117.1c-0.5-0.4-0.7-1.1-0.7-2.1v-4.6h-1.2v-1.8h1.2v-2.2h2.4v2.2h1.6v1.8h-1.6v4.3
			c0,0.4,0.1,0.7,0.3,0.9c0.2,0.2,0.5,0.2,0.8,0.2c0.1,0,0.2,0,0.3,0c0.1,0,0.2,0,0.2,0v1.8c-0.1,0-0.3,0-0.5,0.1
			c-0.2,0-0.4,0-0.7,0C264.7,117.7,263.9,117.5,263.5,117.1z"/>
		<path class="st0" d="M269.5,117.1c-0.5-0.4-0.7-1.1-0.7-2.1v-4.6h-1.2v-1.8h1.2v-2.2h2.4v2.2h1.6v1.8h-1.6v4.3
			c0,0.4,0.1,0.7,0.3,0.9c0.2,0.2,0.5,0.2,0.8,0.2c0.1,0,0.2,0,0.3,0c0.1,0,0.2,0,0.2,0v1.8c-0.1,0-0.3,0-0.5,0.1
			c-0.2,0-0.4,0-0.7,0C270.7,117.7,270,117.5,269.5,117.1z"/>
		<path class="st0" d="M274.2,108.6h2.4v1.6h0.1c0.2-0.4,0.4-0.7,0.6-0.9c0.3-0.3,0.6-0.5,0.9-0.6c0.4-0.1,0.7-0.2,1.2-0.2
			c0.8,0,1.4,0.2,1.9,0.6s1,0.9,1.3,1.6s0.4,1.5,0.4,2.5v0c0,1-0.1,1.8-0.4,2.5c-0.3,0.7-0.7,1.2-1.2,1.6c-0.5,0.4-1.2,0.6-1.9,0.6
			c-0.4,0-0.8-0.1-1.2-0.2c-0.4-0.1-0.7-0.3-0.9-0.6s-0.5-0.6-0.6-0.9h0v4.4h-2.4V108.6z M279.6,115.4c0.3-0.2,0.5-0.5,0.7-0.9
			c0.2-0.4,0.2-0.9,0.2-1.4v0c0-0.5-0.1-1-0.2-1.4c-0.2-0.4-0.4-0.7-0.7-0.9s-0.6-0.3-1-0.3c-0.4,0-0.7,0.1-1,0.3s-0.5,0.5-0.7,0.9
			s-0.2,0.9-0.2,1.4v0c0,0.5,0.1,1,0.3,1.4c0.2,0.4,0.4,0.7,0.7,0.9c0.3,0.2,0.6,0.3,1,0.3C279,115.7,279.3,115.6,279.6,115.4z"/>
		<path class="st0" d="M285.8,117.3c-0.6-0.2-1-0.6-1.3-1c-0.3-0.4-0.5-0.9-0.6-1.5l0-0.1h2.4l0,0.1c0.1,0.3,0.3,0.6,0.5,0.8
			s0.6,0.3,1.1,0.3c0.3,0,0.6,0,0.8-0.1c0.2-0.1,0.4-0.2,0.5-0.3c0.1-0.1,0.2-0.3,0.2-0.5v0c0-0.2-0.1-0.4-0.3-0.6
			c-0.2-0.1-0.5-0.3-0.9-0.4l-1.5-0.3c-0.9-0.2-1.5-0.5-2-0.9s-0.7-1-0.7-1.6v0c0-0.6,0.2-1.1,0.5-1.5c0.3-0.4,0.7-0.7,1.3-1
			c0.6-0.2,1.2-0.3,2-0.3c0.8,0,1.5,0.1,2,0.4c0.6,0.3,1,0.6,1.3,1c0.3,0.4,0.5,0.9,0.5,1.4v0.1h-2.2l0-0.1c0-0.3-0.2-0.6-0.4-0.8
			c-0.3-0.2-0.6-0.3-1.1-0.3c-0.3,0-0.5,0-0.7,0.1c-0.2,0.1-0.4,0.2-0.5,0.3s-0.2,0.3-0.2,0.5v0c0,0.2,0.1,0.4,0.3,0.6
			s0.5,0.3,0.9,0.4l1.5,0.3c0.9,0.2,1.6,0.5,2,0.9c0.4,0.4,0.6,0.9,0.6,1.6v0c0,0.6-0.2,1.1-0.5,1.5s-0.8,0.8-1.4,1
			c-0.6,0.2-1.3,0.4-2,0.4C287.1,117.7,286.4,117.6,285.8,117.3z"/>
		<path class="st0" d="M293.3,111.3c-0.3-0.3-0.4-0.6-0.4-1c0-0.4,0.1-0.7,0.4-1c0.3-0.3,0.6-0.4,1-0.4s0.7,0.1,1,0.4s0.4,0.6,0.4,1
			c0,0.4-0.1,0.7-0.4,1c-0.3,0.3-0.6,0.4-1,0.4S293.6,111.6,293.3,111.3z M293.3,117.3c-0.3-0.3-0.4-0.6-0.4-1c0-0.4,0.1-0.7,0.4-1
			c0.3-0.3,0.6-0.4,1-0.4s0.7,0.1,1,0.4s0.4,0.6,0.4,1c0,0.4-0.1,0.7-0.4,1s-0.6,0.4-1,0.4S293.6,117.5,293.3,117.3z"/>
		<path class="st0" d="M298.5,120.4h-2.2l3-14.9h2.2L298.5,120.4z"/>
		<path class="st0" d="M303.6,120.4h-2.2l3-14.9h2.2L303.6,120.4z"/>
		<path class="st0" d="M313.6,114.4c1.3-0.1,2.5-0.2,3.8-0.3l0.2,1.6c-3.4,0.6-7,0.6-9.8,0.6l-0.3-1.8c1.2,0,2.5,0,3.9,0v-1.3
			c-1.7-0.3-2.8-1.4-2.8-2.8c0-1.8,1.6-2.9,3.9-2.9c2.3,0,3.9,1.2,3.9,2.9c0,1.5-1.1,2.5-2.8,2.8V114.4z M317.1,106.8h-9.4V105h3.6
			v-1.7h2.2v1.7h3.6V106.8z M312.5,111.6c1.1,0,1.8-0.4,1.8-1.3c0-0.8-0.7-1.2-1.8-1.2c-1,0-1.8,0.4-1.8,1.2
			C310.7,111.2,311.4,111.6,312.5,111.6z M320.4,103.3V119h-2.2v-15.7H320.4z"/>
		<path class="st0" d="M336.5,116.9v1.8h-11.6V114h2.2v-2.1c-1.4,0.1-2.7,0.1-3.9,0.1l-0.3-1.8c2.9,0,6.7-0.1,10-0.5l0.2,1.6
			c-1.2,0.2-2.5,0.3-3.7,0.4v3h-2.2v2.1H336.5z M324.1,106.6c0-1.7,1.6-2.8,3.9-2.8c2.3,0,3.9,1.1,3.9,2.8c0,1.7-1.6,2.8-3.9,2.8
			C325.7,109.4,324.1,108.3,324.1,106.6z M326.2,106.6c0,0.8,0.7,1.2,1.8,1.2c1,0,1.8-0.4,1.8-1.2c0-0.8-0.7-1.2-1.8-1.2
			C326.9,105.5,326.2,105.9,326.2,106.6z M333.9,112.4v-9.1h2.2v11.9h-2.2v-1.2H331v-1.5H333.9z"/>
		<path class="st0" d="M346.9,110c0,3.5-1.8,5.6-4.1,5.6c-2.4,0-4.1-2.2-4.1-5.6c0-3.4,1.7-5.6,4.1-5.6
			C345.2,104.4,346.9,106.5,346.9,110z M344.8,110c0-2.3-0.8-3.6-2-3.6c-1.2,0-2,1.2-2,3.6c0,2.3,0.8,3.6,2,3.6
			C344,113.5,344.8,112.3,344.8,110z M353.2,111.1h-2.3v7.9h-2.2v-15.7h2.2v5.9h2.3V111.1z"/>
		<path class="st0" d="M362.9,110c0,3.5-1.8,5.6-4.1,5.6c-2.4,0-4.1-2.2-4.1-5.6c0-3.4,1.8-5.6,4.1-5.6
			C361.2,104.4,362.9,106.5,362.9,110z M356.9,110c0,2.3,0.8,3.6,2,3.6s2-1.2,2-3.6c0-2.3-0.8-3.6-2-3.6S356.9,107.7,356.9,110z
			 M367.2,103.3V119H365v-15.7H367.2z"/>
		<path class="st0" d="M373.1,113.4c2.7,0,4.5-0.1,6.4-0.5l0.2,1.9c-2.1,0.4-4.1,0.5-7.4,0.5h-1.4v-10.6h7.6v1.8h-5.3V113.4z
			 M382.9,103.3V119h-2.2v-15.7H382.9z"/>
		<path class="st0" d="M385.9,117.3c-0.3-0.3-0.4-0.6-0.4-1c0-0.4,0.1-0.7,0.4-1s0.6-0.4,1-0.4c0.4,0,0.7,0.1,1,0.4
			c0.3,0.3,0.4,0.6,0.4,1c0,0.4-0.1,0.7-0.4,1c-0.3,0.3-0.6,0.4-1,0.4C386.5,117.6,386.2,117.5,385.9,117.3z"/>
		<path class="st0" d="M391.4,117.1c-0.7-0.4-1.2-0.9-1.5-1.6c-0.4-0.7-0.5-1.5-0.5-2.5v0c0-1,0.2-1.8,0.5-2.5
			c0.4-0.7,0.9-1.2,1.5-1.6c0.7-0.4,1.4-0.6,2.3-0.6c0.8,0,1.5,0.2,2.1,0.5s1.1,0.7,1.4,1.2c0.3,0.5,0.5,1.1,0.6,1.7v0.1h-2.3l0-0.1
			c-0.1-0.4-0.3-0.8-0.5-1.1c-0.3-0.3-0.7-0.4-1.2-0.4c-0.4,0-0.7,0.1-1,0.3c-0.3,0.2-0.5,0.5-0.7,0.9c-0.2,0.4-0.2,0.9-0.2,1.5v0
			c0,0.6,0.1,1.1,0.2,1.5c0.2,0.4,0.4,0.7,0.7,0.9c0.3,0.2,0.6,0.3,1,0.3c0.5,0,0.9-0.1,1.2-0.4c0.3-0.3,0.5-0.6,0.6-1.1l0-0.1h2.3
			v0c0,0.6-0.2,1.2-0.6,1.7s-0.8,0.9-1.4,1.2c-0.6,0.3-1.3,0.5-2.1,0.5C392.9,117.7,392.1,117.5,391.4,117.1z"/>
		<path class="st0" d="M400.1,117.3c-0.5-0.2-0.8-0.5-1.1-1c-0.3-0.4-0.4-0.9-0.4-1.4v0c0-0.8,0.3-1.4,0.9-1.9
			c0.6-0.5,1.5-0.7,2.6-0.8l3.5-0.2v1.5l-3.1,0.2c-0.5,0-0.8,0.1-1.1,0.3c-0.2,0.2-0.4,0.4-0.4,0.8v0c0,0.3,0.1,0.6,0.4,0.8
			s0.6,0.3,1,0.3c0.4,0,0.7-0.1,1-0.2c0.3-0.1,0.5-0.3,0.7-0.6s0.2-0.5,0.2-0.8v-2.7c0-0.4-0.1-0.7-0.4-0.9
			c-0.3-0.2-0.6-0.3-1.1-0.3c-0.5,0-0.8,0.1-1.1,0.3s-0.4,0.4-0.5,0.7l0,0.1H399l0-0.1c0-0.5,0.2-1,0.6-1.5s0.8-0.8,1.3-1
			c0.6-0.2,1.2-0.4,2-0.4c0.8,0,1.4,0.1,2,0.4s1,0.6,1.3,1s0.5,1,0.5,1.6v6.1h-2.4v-1.3h0c-0.2,0.3-0.4,0.6-0.6,0.8
			c-0.3,0.2-0.6,0.4-0.9,0.5s-0.7,0.2-1.1,0.2C401,117.6,400.5,117.5,400.1,117.3z"/>
		<path class="st0" d="M408.9,110.4h-1.2v-1.8h1.2v-0.7c0-0.9,0.2-1.5,0.7-1.9s1.2-0.6,2.3-0.6c0.2,0,0.4,0,0.7,0
			c0.2,0,0.4,0,0.5,0.1v1.6c-0.1,0-0.2,0-0.3,0c-0.1,0-0.2,0-0.3,0c-0.4,0-0.7,0.1-0.9,0.3s-0.3,0.4-0.3,0.7v0.6h1.8v1.8h-1.7v7.1
			h-2.4V110.4z"/>
		<path class="st0" d="M416,117.1c-0.7-0.4-1.2-0.9-1.5-1.6c-0.4-0.7-0.5-1.5-0.5-2.5v0c0-0.9,0.2-1.8,0.5-2.5
			c0.4-0.7,0.9-1.2,1.5-1.6c0.6-0.4,1.4-0.6,2.3-0.6c0.9,0,1.6,0.2,2.3,0.6s1.1,0.9,1.5,1.6s0.5,1.5,0.5,2.3v0.8h-7.3v-1.5h6.2
			l-1.2,1.4v-0.9c0-0.5-0.1-1-0.2-1.3s-0.4-0.6-0.7-0.8s-0.6-0.3-1-0.3s-0.7,0.1-1,0.3c-0.3,0.2-0.5,0.5-0.7,0.8s-0.2,0.8-0.2,1.3
			v0.9c0,0.5,0.1,0.9,0.2,1.3s0.4,0.6,0.7,0.8s0.7,0.3,1.1,0.3c0.3,0,0.6-0.1,0.9-0.2c0.2-0.1,0.4-0.2,0.6-0.4
			c0.2-0.2,0.3-0.3,0.3-0.5l0,0h2.2l0,0.1c-0.1,0.3-0.2,0.7-0.4,1c-0.2,0.3-0.5,0.6-0.8,0.9s-0.7,0.5-1.2,0.7
			c-0.5,0.2-1,0.2-1.7,0.2C417.5,117.7,416.7,117.5,416,117.1z"/>
		<path class="st0" d="M423.8,115.8l4.2-4c0.5-0.5,0.9-0.9,1.2-1.2c0.3-0.3,0.4-0.6,0.5-0.9s0.1-0.5,0.1-0.8v0
			c0-0.3-0.1-0.6-0.2-0.9s-0.4-0.4-0.6-0.6c-0.3-0.1-0.6-0.2-0.9-0.2c-0.4,0-0.8,0.1-1.1,0.2s-0.6,0.4-0.7,0.7s-0.3,0.6-0.3,1l0,0.1
			h-2.3v-0.1c0-0.8,0.2-1.4,0.6-2s0.9-1,1.6-1.4c0.7-0.3,1.4-0.5,2.3-0.5c0.8,0,1.6,0.1,2.2,0.4c0.6,0.3,1.1,0.7,1.5,1.2
			c0.4,0.5,0.5,1.1,0.5,1.8v0c0,0.5-0.1,0.9-0.3,1.3c-0.2,0.4-0.5,0.8-0.9,1.3s-0.9,1-1.6,1.6l-3.5,3.2l1-1.7v1.7l-1-0.8h6.4v2h-8.7
			V115.8z"/>
		<path class="st0" d="M439.8,115.3h-6v-2.1c0.3-0.5,0.6-1,1-1.5c0.3-0.5,0.6-1,1-1.5c0.3-0.5,0.6-1,1-1.5c0.3-0.5,0.6-1,1-1.5
			c0.3-0.5,0.6-1,1-1.5h3.5v7.8h1.6v2h-1.6v2.2h-2.4V115.3z M439.8,113.4v-6h-0.1c-0.2,0.4-0.5,0.8-0.7,1.2s-0.5,0.8-0.8,1.2
			s-0.5,0.8-0.8,1.2s-0.5,0.8-0.8,1.2s-0.5,0.8-0.8,1.2v0.1H439.8z"/>
		<path class="st0" d="M445.3,117.3c-0.3-0.3-0.4-0.6-0.4-1c0-0.4,0.1-0.7,0.4-1s0.6-0.4,1-0.4c0.4,0,0.7,0.1,1,0.4s0.4,0.6,0.4,1
			c0,0.4-0.1,0.7-0.4,1s-0.6,0.4-1,0.4C445.9,117.6,445.6,117.5,445.3,117.3z"/>
		<path class="st0" d="M450.8,117.1c-0.7-0.4-1.2-0.9-1.5-1.6c-0.4-0.7-0.5-1.5-0.5-2.5v0c0-1,0.2-1.8,0.5-2.5
			c0.4-0.7,0.9-1.2,1.5-1.6c0.7-0.4,1.4-0.6,2.3-0.6c0.8,0,1.5,0.2,2.1,0.5c0.6,0.3,1.1,0.7,1.4,1.2s0.5,1.1,0.6,1.7v0.1h-2.3l0-0.1
			c-0.1-0.4-0.3-0.8-0.5-1.1c-0.3-0.3-0.7-0.4-1.2-0.4c-0.4,0-0.7,0.1-1,0.3c-0.3,0.2-0.5,0.5-0.7,0.9c-0.2,0.4-0.2,0.9-0.2,1.5v0
			c0,0.6,0.1,1.1,0.2,1.5c0.2,0.4,0.4,0.7,0.7,0.9c0.3,0.2,0.6,0.3,1,0.3c0.5,0,0.9-0.1,1.2-0.4c0.3-0.3,0.5-0.6,0.6-1.1l0-0.1h2.3
			v0c0,0.6-0.2,1.2-0.6,1.7s-0.8,0.9-1.4,1.2c-0.6,0.3-1.3,0.5-2.1,0.5C452.3,117.7,451.5,117.5,450.8,117.1z"/>
		<path class="st0" d="M460.1,117.1c-0.7-0.4-1.2-0.9-1.5-1.6s-0.5-1.5-0.5-2.5v0c0-1,0.2-1.8,0.6-2.5c0.4-0.7,0.9-1.2,1.5-1.6
			c0.7-0.4,1.4-0.6,2.3-0.6c0.9,0,1.7,0.2,2.3,0.6s1.2,0.9,1.5,1.6c0.4,0.7,0.5,1.5,0.5,2.5v0c0,1-0.2,1.8-0.5,2.5s-0.9,1.2-1.5,1.6
			s-1.4,0.6-2.3,0.6C461.6,117.7,460.8,117.5,460.1,117.1z M463.5,115.5c0.3-0.2,0.5-0.5,0.7-0.9c0.2-0.4,0.2-0.9,0.2-1.5v0
			c0-0.6-0.1-1.1-0.2-1.5c-0.2-0.4-0.4-0.7-0.7-0.9c-0.3-0.2-0.6-0.3-1-0.3c-0.4,0-0.7,0.1-1,0.3c-0.3,0.2-0.5,0.5-0.7,0.9
			s-0.2,0.9-0.2,1.5v0c0,0.6,0.1,1.1,0.2,1.5c0.2,0.4,0.4,0.7,0.7,0.9c0.3,0.2,0.6,0.3,1,0.3C462.9,115.8,463.2,115.7,463.5,115.5z"
			/>
		<path class="st0" d="M468.1,108.6h2.4v1.5h0c0.2-0.5,0.5-0.9,0.9-1.2c0.4-0.3,1-0.5,1.6-0.5c0.4,0,0.8,0.1,1.1,0.2
			s0.6,0.4,0.8,0.6c0.2,0.3,0.4,0.6,0.5,1h0c0.1-0.4,0.3-0.7,0.6-1c0.3-0.3,0.6-0.5,1-0.6c0.4-0.1,0.8-0.2,1.2-0.2
			c0.6,0,1.1,0.1,1.5,0.4c0.4,0.2,0.8,0.6,1,1c0.2,0.4,0.4,1,0.4,1.6v6.1h-2.4V112c0-0.5-0.1-0.9-0.4-1.2c-0.2-0.3-0.6-0.4-1.1-0.4
			c-0.3,0-0.6,0.1-0.8,0.2c-0.2,0.1-0.4,0.3-0.5,0.6s-0.2,0.5-0.2,0.9v5.4h-2.3V112c0-0.5-0.1-0.9-0.4-1.1s-0.6-0.4-1.1-0.4
			c-0.3,0-0.6,0.1-0.8,0.2s-0.4,0.3-0.5,0.6c-0.1,0.3-0.2,0.5-0.2,0.9v5.4h-2.4V108.6z"/>
	</g>
</g>
</svg>
