<svg id="Layer_1" data-name="Layer 1" xmlns="http://www.w3.org/2000/svg" viewBox="0 0 820.25 409">
  <defs>
    <style>
      .cls-1, .cls-2 {
        fill: #fff;
      }

      .cls-2 {
        fill-opacity: 0.4;
      }

      .cls-3 {
        fill: #a7ff9f;
      }

      .cls-4 {
        fill: #146af0;
      }

      .cls-5 {
        fill: #eaeaea;
      }

      .cls-6 {
        fill: #0068b6;
      }

      .cls-7 {
        fill: #00101d;
      }

      .cls-8 {
        font-size: 17px;
        font-family: NotoSansKR-Bold-KSCpc-EUC-H, Noto Sans KR;
      }

      .cls-9 {
        letter-spacing: -0.02em;
      }

      .cls-10 {
        letter-spacing: -0.01em;
      }

      .cls-11 {
        letter-spacing: -0.05em;
      }

      .cls-12 {
        letter-spacing: -0.03em;
      }

      .cls-13 {
        letter-spacing: -0.02em;
      }

      .cls-14 {
        letter-spacing: 0em;
      }
    </style>
  </defs>
  <title>step01-1</title>
  <path class="cls-1" d="M0,42H623V395a14,14,0,0,1-14,14H14A14,14,0,0,1,0,395Z"/>
  <path class="cls-2" d="M0,14A14,14,0,0,1,14,0H609a14,14,0,0,1,14,14V42H0Z"/>
  <circle class="cls-1" cx="23" cy="21" r="8"/>
  <circle class="cls-1" cx="48" cy="21" r="8"/>
  <circle class="cls-1" cx="73" cy="21" r="8"/>
  <path class="cls-3" d="M299.08,321H428.92a21.68,21.68,0,0,1,21.68,21.68h0a21.68,21.68,0,0,1-21.68,21.68H299.08a21.68,21.68,0,0,1-21.68-21.68h0A21.68,21.68,0,0,1,299.08,321Z"/>
  <rect class="cls-4" x="20" y="125" width="108" height="12" rx="4"/>
  <rect class="cls-5" x="20" y="149" width="63" height="12" rx="4"/>
  <rect class="cls-5" x="20" y="173" width="83" height="12" rx="4"/>
  <g>
    <path class="cls-6" d="M107,71a5.6,5.6,0,0,1,2.85,4.8,5.37,5.37,0,0,1-1.39,3.62,7.78,7.78,0,0,1-4,1.81,18,18,0,0,0-3.13.76c-1,.42-2.09,1-2.09,2.37h10.86v3.55H95.27V84.87a5.78,5.78,0,0,1,2.78-4.94,11.08,11.08,0,0,1,4.66-1.74c1.46-.28,3.41-.42,3.41-2.37s-2.36-2.5-4-2.43A6,6,0,0,0,98,75.27l-2.64-2.44a9.51,9.51,0,0,1,6.82-3.06A10.42,10.42,0,0,1,107,71Z"/>
    <path class="cls-6" d="M111.2,80.14a3.15,3.15,0,0,0-.63,3.06,2.62,2.62,0,0,0,2.72,1.6h7.44v3.13h3.83V84.8h3.13V81.6h-3.13V72.48a2.54,2.54,0,0,0-2.51-2.5,3.56,3.56,0,0,0-3.27,1.32Zm9.53-6.26V81.6h-6.54Z"/>
    <path class="cls-7" d="M72.8,81H62.92v7H59.1V75.13c0-3,1.8-4.94,5.14-4.94H73.5v3.55H64.87c-1.46,0-2,.69-2,2.08v2.09H72.8Z"/>
    <path class="cls-7" d="M93.32,77.84a9.32,9.32,0,0,0-2.57-5.29A9.18,9.18,0,1,0,79.41,86.81a9.17,9.17,0,0,0,11.34-1.46L88.1,83a5.54,5.54,0,0,1-7.79-.14A6.49,6.49,0,0,1,79.06,81H93.18A8.73,8.73,0,0,0,93.32,77.84Zm-14.54,0a5.52,5.52,0,0,1,1.46-2.71,5.63,5.63,0,0,1,6.68-1,5.31,5.31,0,0,1,2.71,3.69Z"/>
    <path class="cls-7" d="M33.77,83.13l2.58,2.71A9.6,9.6,0,0,1,20,79a9.59,9.59,0,0,1,16.42-6.74l-2.85,2.5a5.82,5.82,0,1,0,.2,8.35Z"/>
    <path class="cls-7" d="M51.44,70.12V72a7.07,7.07,0,0,0-5.28-2.16A9.15,9.15,0,0,0,46,88.14,6.92,6.92,0,0,0,51.44,86v2h3.9V70.12ZM46.09,84.59A5.57,5.57,0,1,1,51.65,79,5.59,5.59,0,0,1,46.09,84.59Z"/>
  </g>
  <text/>  <text/>  <text class="cls-8" transform="translate(323.39 348.64)"><tspan class="cls-9">L</tspan><tspan class="cls-10" x="9.57" y="0">e</tspan><tspan x="19.24" y="0">t</tspan><tspan class="cls-11" x="26.38" y="0">’</tspan><tspan x="31.14" y="0">s </tspan><tspan class="cls-12" x="43.42" y="0">S</tspan><tspan class="cls-13" x="53.5" y="0">t</tspan><tspan class="cls-14" x="60.25" y="0">art</tspan></text>
  <text/></svg>
