<?xml version="1.0" encoding="utf-8"?>
<!-- Generator: Adobe Illustrator 24.0.1, SVG Export Plug-In . SVG Version: 6.00 Build 0)  -->
<svg version="1.1" id="Layer_1" xmlns="http://www.w3.org/2000/svg" xmlns:xlink="http://www.w3.org/1999/xlink" x="0px" y="0px"
	 viewBox="0 0 623 409" style="enable-background:new 0 0 623 409;" xml:space="preserve">
<style type="text/css">
	.st0{fill:#FFFFFF;}
	.st1{fill:#FFFFFF;fill-opacity:0.4;}
	.st2{fill:#EAEAEA;}
	.st3{fill:#146AF0;}
	.st4{fill:#0068B6;}
	.st5{fill:#00101D;}
</style>
<path class="st0" d="M-0.8,42.3h623v353c0,7.7-6.3,14-14,14h-595c-7.7,0-14-6.3-14-14V42.3z"/>
<path class="st1" d="M-0.3,13.8c0-7.7,6.3-14,14-14h595c7.7,0,14,6.3,14,14v28h-623V13.8z"/>
<circle class="st0" cx="22.8" cy="20.8" r="8"/>
<circle class="st0" cx="47.8" cy="20.8" r="8"/>
<circle class="st0" cx="72.8" cy="20.8" r="8"/>
<path class="st2" d="M23.8,124.8h100c2.2,0,4,1.8,4,4v4c0,2.2-1.8,4-4,4h-100c-2.2,0-4-1.8-4-4v-4C19.8,126.6,21.5,124.8,23.8,124.8
	z"/>
<path class="st2" d="M23.8,148.8h55c2.2,0,4,1.8,4,4v4c0,2.2-1.8,4-4,4h-55c-2.2,0-4-1.8-4-4v-4C19.8,150.6,21.5,148.8,23.8,148.8z"
	/>
<path class="st3" d="M23.8,172.8h75c2.2,0,4,1.8,4,4v4c0,2.2-1.8,4-4,4h-75c-2.2,0-4-1.8-4-4v-4C19.8,174.6,21.5,172.8,23.8,172.8z"
	/>
<path class="st2" d="M23.8,196.8h75c2.2,0,4,1.8,4,4v4c0,2.2-1.8,4-4,4h-75c-2.2,0-4-1.8-4-4v-4C19.8,198.6,21.5,196.8,23.8,196.8z"
	/>
<g>
	<circle class="st0" cx="23" cy="20.9" r="8"/>
	<circle class="st0" cx="48" cy="20.9" r="8"/>
	<circle class="st0" cx="73.1" cy="20.9" r="8"/>
	<g>
		<path class="st4" d="M107.1,70.9c1.7,1,2.9,2.8,2.9,4.8c0,1.3-0.5,2.6-1.4,3.6c-1,1.1-2.6,1.5-4,1.8c-1,0.2-2.2,0.3-3.1,0.8
			c-1,0.4-2.1,1-2.1,2.4h10.9v3.5H95.3v-3.1c0-1.9,0.8-3.6,2.8-4.9c1.4-1,3-1.5,4.7-1.7c1.5-0.3,3.4-0.4,3.4-2.4
			c0-1.9-2.4-2.5-4-2.4c-1.9,0.1-3.2,0.8-4.2,1.9l-2.6-2.5c1.4-1.7,4-3,6.8-3.1C103.9,69.8,105.8,70.1,107.1,70.9z"/>
		<path class="st4" d="M111.3,80.1c-0.6,0.7-1,1.7-0.6,3.1c0.3,0.8,1,1.6,2.7,1.6h7.4v3.1h3.8v-3.1h3.1v-3.2h-3.1v-9.1
			c0-1.4-1-2.4-2.5-2.5c-1.2-0.1-2.5,0.3-3.3,1.3L111.3,80.1z M120.8,73.8v7.7h-6.5L120.8,73.8z"/>
		<path class="st5" d="M72.8,80.9h-9.9v7h-3.8V75.1c0-3,1.8-4.9,5.1-4.9h9.3v3.5H65c-1.5,0-1.9,0.7-1.9,2.1c0,0.3,0,2.1,0,2.1H73
			v3.1H72.8z"/>
		<path class="st5" d="M93.3,77.8c-0.2-1.9-1.3-4-2.6-5.3c-1.7-1.7-4-2.7-6.5-2.7c-5.1,0-9.2,4.1-9.2,9.2c0,3.3,1.7,6.2,4.4,7.8
			c1.5,0.9,3.1,1.3,4.8,1.3c2.5,0,4.9-1,6.5-2.8l-2.6-2.4c-1,0.9-2.4,1.5-3.8,1.5s-2.9-0.6-4-1.7c-0.6-0.6-1-1.3-1.3-1.9h14.1
			C93.3,80.9,93.6,79.7,93.3,77.8z M78.8,77.8c0.2-1,0.7-1.9,1.5-2.7c1.8-1.8,4.6-2.2,6.7-1c1.5,0.8,2.4,2.2,2.7,3.7
			C89.8,77.8,78.8,77.8,78.8,77.8z"/>
		<path class="st5" d="M33.8,83.1l2.6,2.7c-1.7,1.7-4.1,2.8-6.8,2.8c-5.3,0-9.5-4.3-9.5-9.6s4.3-9.6,9.6-9.6c2.6,0,5.1,1.1,6.8,2.9
			l-2.9,2.5c-1-1-2.4-1.6-4-1.6c-3.2,0-5.8,2.6-5.8,5.8s2.6,5.8,5.8,5.8C31.4,84.8,32.8,84.1,33.8,83.1z"/>
		<path class="st5" d="M51.5,70.1V72c-1.1-1.4-3.3-2.2-5.3-2.2c-5.1,0-9.2,4.1-9.2,9.2c0,5,4.1,9.1,9,9.1c1.9,0,4.1-0.6,5.4-2.2v1.9
			h3.9V70.1H51.5z M46.2,84.4c-3.1,0-5.6-2.5-5.6-5.6s2.5-5.6,5.6-5.6s5.6,2.5,5.6,5.6S49.3,84.4,46.2,84.4z"/>
	</g>
</g>
</svg>
