<svg width="85" height="16" viewBox="0 0 85 16" fill="none" xmlns="http://www.w3.org/2000/svg">
<path fill-rule="evenodd" clip-rule="evenodd" d="M23.6865 8.03804V7.9999C23.6865 4.20504 26.6669 1.09668 30.7434 1.09668C33.1664 1.09668 34.6278 1.74505 36.0315 2.92737L34.1663 5.15852C33.1279 4.30038 32.2047 3.80457 30.6472 3.80457C28.4936 3.80457 26.7823 5.69247 26.7823 7.96176V7.9999C26.7823 10.4408 28.4744 12.2336 30.8587 12.2336C31.9358 12.2336 32.8972 11.9664 33.6471 11.4324V9.52548H30.6667V6.98921H36.5122V12.7866C35.1277 13.9499 33.2241 14.9034 30.7626 14.9034C26.5708 14.9034 23.6865 11.9857 23.6865 8.03804ZM0 12.7293L1.7498 10.6505C2.9612 11.6421 4.23053 12.2717 5.76858 12.2717C6.98022 12.2717 7.7109 11.7949 7.7109 11.0131V10.9749C7.7109 10.2312 7.24942 9.84983 4.99967 9.27774C2.28844 8.59123 0.5384 7.84751 0.5384 5.19659V5.15845C0.5384 2.7366 2.49972 1.13451 5.24965 1.13451C7.21096 1.13451 8.88385 1.74498 10.2491 2.83195L8.71079 5.04403C7.51862 4.22403 6.34567 3.72822 5.21119 3.72822C4.07646 3.72822 3.48037 4.2431 3.48037 4.89147V4.92961C3.48037 5.80682 4.05723 6.09286 6.38413 6.68426C9.11459 7.38984 10.6529 8.36239 10.6529 10.6887V10.727C10.6529 13.3777 8.61465 14.8652 5.71113 14.8652C3.6729 14.8652 1.6152 14.1596 0 12.7293ZM42.1156 13.149C42.1156 14.0629 41.3688 14.8035 40.4473 14.8035C39.5257 14.8035 38.7789 14.0629 38.7789 13.149C38.7789 12.2353 39.5257 11.4944 40.4473 11.4944C41.3688 11.4944 42.1156 12.2353 42.1156 13.149ZM13.5753 10.6505L11.8255 12.7293C13.4407 14.1596 15.4984 14.8652 17.5366 14.8652C20.4402 14.8652 22.4784 13.3777 22.4784 10.727V10.6887C22.4784 8.36239 20.9401 7.38984 18.2096 6.68426C15.8827 6.09286 15.3059 5.80682 15.3059 4.92961V4.89147C15.3059 4.2431 15.902 3.72822 17.0367 3.72822C18.1712 3.72822 19.3441 4.22403 20.5363 5.04403L22.0746 2.83195C20.7094 1.74498 19.0365 1.13451 17.0752 1.13451C14.3252 1.13451 12.3639 2.7366 12.3639 5.15845V5.19659C12.3639 7.84751 14.114 8.59123 16.8252 9.27774C19.0749 9.84983 19.5364 10.2312 19.5364 10.9749V11.0131C19.5364 11.7949 18.8057 12.2717 17.5943 12.2717C16.056 12.2717 14.7867 11.6421 13.5753 10.6505ZM42.9086 7.9999V8.03804C42.9086 11.871 45.8506 14.9034 49.8119 14.9034C52.4078 14.9034 53.9463 13.988 55.3307 12.5197L53.4463 10.6318C52.3885 11.5852 51.4463 12.1952 49.908 12.1952C47.6006 12.1952 46.0046 10.2883 46.0046 7.9999V7.96176C46.0046 5.6734 47.6391 3.80457 49.908 3.80457C51.254 3.80457 52.3116 4.37666 53.35 5.31108L55.2344 3.1562C53.9847 1.93551 52.4657 1.09668 49.9273 1.09668C45.7929 1.09668 42.9086 4.20504 42.9086 7.9999ZM67.0598 8.03804V7.9999C67.0598 5.71154 65.3677 3.80457 62.9834 3.80457C60.5988 3.80457 58.9454 5.6734 58.9454 7.96176V7.9999C58.9454 10.2883 60.6372 12.1952 63.0216 12.1952C65.4062 12.1952 67.0598 10.3266 67.0598 8.03804ZM55.8493 8.03804V7.9999C55.8493 4.20504 58.8684 1.09668 63.0216 1.09668C67.1752 1.09668 70.1559 4.1669 70.1559 7.96176V7.9999C70.1559 11.795 67.1367 14.9034 62.9834 14.9034C58.83 14.9034 55.8493 11.8331 55.8493 8.03804ZM74.7317 1.32549H71.5397V14.6745H74.4433V6.01663L78.1931 11.6613H78.2698L82.058 5.95942V14.6745H85V1.32549H81.8081L78.2698 6.97035L74.7317 1.32549Z" fill="white"/>
</svg>
