<svg width="155" height="18" viewBox="0 0 155 18" fill="none" xmlns="http://www.w3.org/2000/svg">
<path fill-rule="evenodd" clip-rule="evenodd" d="M5.16269 8.5457C5.89013 8.92463 6.44749 9.35131 6.86529 9.85016C7.34116 10.3912 7.58236 11.0464 7.58236 11.7967C7.58236 13.6819 6.00362 14.9994 3.74306 14.9994C2.471 14.9994 1.24131 14.6247 0.184963 13.9179L0.171036 13.9085V11.6937L0.229706 11.7592C0.608095 12.1779 1.76134 13.4526 3.74306 13.4526C4.71407 13.4526 5.74731 12.926 5.74731 11.9508C5.74731 11.0089 4.67437 10.3018 4.03463 9.96343C1.98416 8.8705 1.36576 8.54015 0.775214 7.87751C0.324525 7.36089 0.114441 6.80235 0.114441 6.11777C0.114441 4.28225 1.71807 3 4.01389 3C5.07883 3 6.12807 3.2851 7.04811 3.82337L7.06441 3.83254V5.81324L7.00841 5.76549C6.07532 4.96738 5.04801 4.56347 3.95552 4.56347C2.77087 4.56347 1.91127 5.11701 1.91127 5.87987C1.91127 6.86203 2.73086 7.28621 5.16269 8.5457Z" fill="white"/>
<path fill-rule="evenodd" clip-rule="evenodd" d="M20.609 8.18437H13.6798V3.15308H11.8175V14.8455H13.6798V9.78143H20.609V14.8455H22.4877V3.15308H20.609V8.18437Z" fill="white"/>
<mask id="mask0_4196_68403" style="mask-type:alpha" maskUnits="userSpaceOnUse" x="0" y="3" width="110" height="12">
<path fill-rule="evenodd" clip-rule="evenodd" d="M0.11438 15H109.886V3H0.11438V15Z" fill="white"/>
</mask>
<g mask="url(#mask0_4196_68403)">
<path fill-rule="evenodd" clip-rule="evenodd" d="M27.505 14.8455H29.3667V3.15308H27.505V14.8455Z" fill="white"/>
<path fill-rule="evenodd" clip-rule="evenodd" d="M44.3089 12.1227L35.9337 3.15308H34.4394V14.8458H36.1912V5.9455L44.4831 14.8352L44.4935 14.8458H46.08V3.15308H44.3089V12.1227Z" fill="white"/>
<path fill-rule="evenodd" clip-rule="evenodd" d="M55.4658 8.5457C53.0322 7.28677 52.2138 6.86259 52.2138 5.87987C52.2138 5.11701 53.0728 4.56347 54.258 4.56347C55.3511 4.56347 56.379 4.96794 57.3124 5.76549L57.3681 5.81324V3.83254L57.353 3.82337C56.4323 3.2851 55.3819 3 54.3146 3C52.0188 3 50.4152 4.28225 50.4152 6.11777C50.4152 6.80318 50.6264 7.36172 51.0777 7.87751C51.6659 8.53932 52.2852 8.86994 54.3371 9.96398C54.9769 10.3013 56.0516 11.0072 56.0516 11.9508C56.0516 12.926 55.0172 13.4526 54.0438 13.4526C52.0612 13.4526 50.9106 12.1779 50.5316 11.7592L50.4723 11.6937V13.9085L50.4869 13.9179C51.5438 14.6247 52.7723 14.9994 54.0438 14.9994C55.1798 14.9994 56.1476 14.6844 56.8436 14.0897C57.5145 13.5154 57.8843 12.7012 57.8843 11.7967C57.8843 11.0447 57.6425 10.3898 57.1672 9.85016C56.7482 9.34964 56.1914 8.92185 55.4658 8.5457Z" fill="white"/>
<path fill-rule="evenodd" clip-rule="evenodd" d="M63.9646 9.7298H69.0718V8.18437H63.9646V4.70016H69.2549V3.15308H62.1035V14.8455H69.4203V13.2806H63.9646V9.7298Z" fill="white"/>
<path fill-rule="evenodd" clip-rule="evenodd" d="M79.943 10.5986H82.3425V12.9668C81.2041 13.3086 80.5629 13.4701 79.6479 13.4701C76.7132 13.4701 74.6639 11.6321 74.6639 9.00069C74.6639 6.21244 77.1135 4.54626 79.4816 4.54626C80.2959 4.54626 81.954 4.70282 83.8987 5.75328L83.9485 5.78076V3.99965L83.9281 3.99188C82.5553 3.44944 81.2764 3 79.5198 3C75.1104 3 72.7308 6.14304 72.7308 9.10063C72.7308 10.5542 73.3172 11.9924 74.3409 13.0476C75.581 14.324 77.3971 15 79.5921 15C81.5976 15 83.0987 14.4878 84.1829 14.0414L84.2024 14.0339V9.06898H79.943V10.5986Z" fill="white"/>
<path fill-rule="evenodd" clip-rule="evenodd" d="M95.1855 9.85357H91.4046L93.2219 5.75225L95.1855 9.85357ZM92.5964 3.0835L87.221 14.8012L87.2015 14.845H89.1059L90.6813 11.418H95.9459L97.6046 14.8267L97.6132 14.845H99.5179L93.9031 3.0835H92.5964Z" fill="white"/>
<path fill-rule="evenodd" clip-rule="evenodd" d="M104.431 13.2806V9.7298H109.54V8.18437H104.431V4.70016H109.723V3.15308H102.569V14.8455H109.886V13.2806H104.431Z" fill="white"/>
</g>
<path d="M128.004 10.066V6.818H126.702V9.926H125.512V2.968H126.702V5.796H128.004V2.744H129.194V10.066H128.004ZM119.254 9.352V3.542H120.486V5.32H123.062V3.528H124.308V9.352H119.254ZM123.062 6.3H120.486V8.344H123.062V6.3ZM127.962 14.994V11.676H120.864V10.668H129.194V14.994H127.962ZM140.481 9.226V14.98H139.263V2.744H140.481V8.19H142.371V9.226H140.481ZM132.837 4.354V3.346H136.323V4.354H132.837ZM131.031 6.174V5.152H138.297V6.174H131.031ZM138.605 12.572C138.353 12.6093 138.059 12.6467 137.723 12.684C137.387 12.712 137.033 12.74 136.659 12.768C136.286 12.796 135.903 12.824 135.511 12.852C135.129 12.88 134.755 12.9033 134.391 12.922C133.729 12.9593 133.108 12.9873 132.529 13.006C131.96 13.0153 131.423 13.02 130.919 13.02L130.737 11.984C131.213 11.984 131.727 11.984 132.277 11.984C132.828 11.9747 133.397 11.956 133.985 11.928V10.822C133.64 10.7753 133.327 10.696 133.047 10.584C132.767 10.4627 132.525 10.3133 132.319 10.136C132.114 9.95867 131.955 9.75333 131.843 9.52C131.731 9.28667 131.675 9.03933 131.675 8.778C131.675 8.46067 131.745 8.176 131.885 7.924C132.035 7.66267 132.24 7.44333 132.501 7.266C132.763 7.07933 133.071 6.93467 133.425 6.832C133.789 6.72933 134.181 6.678 134.601 6.678C135.04 6.678 135.437 6.72933 135.791 6.832C136.146 6.92533 136.454 7.06533 136.715 7.252C136.977 7.42933 137.177 7.64867 137.317 7.91C137.457 8.17133 137.527 8.46067 137.527 8.778C137.527 9.32867 137.317 9.786 136.897 10.15C136.477 10.514 135.917 10.738 135.217 10.822V11.858C135.889 11.8207 136.501 11.7787 137.051 11.732C137.602 11.6853 138.078 11.6387 138.479 11.592L138.605 12.572ZM136.253 8.778C136.253 8.47 136.104 8.21333 135.805 8.008C135.507 7.79333 135.105 7.686 134.601 7.686C134.116 7.686 133.719 7.79333 133.411 8.008C133.113 8.21333 132.963 8.47 132.963 8.778C132.963 9.07667 133.113 9.33333 133.411 9.548C133.719 9.76267 134.116 9.87 134.601 9.87C135.105 9.87 135.507 9.76267 135.805 9.548C136.104 9.33333 136.253 9.07667 136.253 8.778ZM151.881 9.912V6.86H149.599V5.852H151.881V2.744H153.127V9.912H151.881ZM143.369 3.626H150.061V4.648H147.387V5.124C147.387 5.55333 147.471 5.964 147.639 6.356C147.816 6.73867 148.045 7.084 148.325 7.392C148.605 7.7 148.917 7.966 149.263 8.19C149.617 8.40467 149.967 8.56333 150.313 8.666L149.627 9.66C149.356 9.548 149.076 9.40333 148.787 9.226C148.507 9.04867 148.236 8.84333 147.975 8.61C147.723 8.37667 147.489 8.12933 147.275 7.868C147.069 7.59733 146.901 7.322 146.771 7.042C146.677 7.33133 146.519 7.62533 146.295 7.924C146.08 8.22267 145.833 8.50733 145.553 8.778C145.273 9.03933 144.969 9.27733 144.643 9.492C144.325 9.70667 144.008 9.87933 143.691 10.01L142.991 9.044C143.392 8.89467 143.779 8.68933 144.153 8.428C144.526 8.16667 144.857 7.86333 145.147 7.518C145.445 7.17267 145.683 6.79933 145.861 6.398C146.038 5.99667 146.127 5.58133 146.127 5.152V4.648H143.369V3.626ZM145.245 14.812V10.528H153.127V14.812H145.245ZM151.881 11.508H146.477V13.818H151.881V11.508Z" fill="white"/>
</svg>
