<svg width="86" height="20" viewBox="0 0 86 20" fill="none" xmlns="http://www.w3.org/2000/svg">
<path d="M45.8128 19.2604C45.6685 19.3067 44.888 19.5231 44.0561 19.5231C42.2015 19.5231 41.215 18.7194 41.215 17.0091V6.72144H42.253C43.3374 6.72144 43.6903 7.36023 43.6903 8.24888V9.02934H45.8128V9.63465C45.8128 10.495 45.2255 10.9818 44.3497 10.9818H43.6903V16.5661C43.6903 17.1765 43.8938 17.6119 44.7515 17.6119C45.259 17.6119 45.7303 17.465 45.8128 17.4418C45.8128 17.6505 45.8128 19.2604 45.8128 19.2604ZM39.3784 10.6984C39.9039 10.6984 40.4474 10.8581 40.5118 10.8762V9.02934C40.4242 9.01131 39.4068 8.78979 38.4434 8.78979C36.8078 8.78979 35.6539 9.47237 35.6539 11.2677V19.2732H38.1292V11.7622C38.1292 11.1003 38.5465 10.6984 39.3784 10.6984ZM25.1678 11.6927C25.1678 10.665 24.5934 8.80009 21.2861 8.80009C19.5887 8.80009 18.9087 9.25343 18.6666 9.42086C18.4141 9.27661 17.6259 8.80009 16.047 8.80009C12.9895 8.80009 12.1653 10.343 12.1653 11.6206V19.2758H14.6612V11.7854C14.6612 11.3527 14.9008 10.6959 16.047 10.6959C16.9382 10.6959 17.4199 11.1518 17.4199 11.7854V19.2758H19.9158V11.7854C19.9158 11.1544 20.3898 10.6959 21.2887 10.6959C22.2675 10.6959 22.6745 11.2033 22.6745 11.7854V17.5578C22.6745 18.6885 23.3262 19.3273 24.3565 19.3273H25.1704V11.6927H25.1678ZM30.443 8.79237C33.5649 8.79237 34.6957 10.2889 34.6957 12.2851V15.5255C34.6957 17.8025 33.2532 19.5205 30.2653 19.5205C27.2774 19.5205 25.8478 18.1605 25.8478 16.3291C25.8478 14.8686 26.8292 13.9053 28.9594 13.3129C29.2685 13.2279 30.3065 12.9136 30.7753 12.7745C31.8494 12.4551 32.1972 12.2079 32.1972 11.7365C32.1972 11.2394 31.5996 10.6984 30.3838 10.6984C28.9311 10.6984 28.4751 11.6077 28.4648 12.2645H26.1982C26.1982 10.2374 27.3907 8.79494 30.443 8.79494M30.0696 17.617C31.0277 17.617 32.2023 17.004 32.2023 15.4405V14.2118C32.2023 14.2118 30.3143 14.7605 29.7836 14.9227C28.8409 15.2138 28.3876 15.7006 28.3876 16.3368C28.3876 16.9731 28.9053 17.6144 30.0696 17.6144" fill="white"/>
<path d="M5.9139 19.5178C2.47008 19.5178 0.96582 17.3799 0.96582 14.6779V11.7596C0.96582 8.00406 3.43857 6.54102 6.33891 6.54102C9.84197 6.54102 11.372 8.47285 11.372 10.4021C11.372 13.22 8.52575 13.9103 7.26876 14.2787C6.90815 14.3843 5.5739 14.7861 5.27253 14.8763C4.10055 15.2214 3.76312 15.6052 3.76312 16.0431C3.76312 16.7901 4.40707 17.434 5.9139 17.434C7.22498 17.434 8.18317 16.9832 8.34287 15.5975H11.0835C10.8002 17.792 9.49939 19.5204 5.9139 19.5204M6.223 8.63255C4.70071 8.63255 3.70388 9.66287 3.70388 11.4221V13.269C3.70388 13.269 5.76451 12.6611 6.62482 12.3958C7.34604 12.1743 8.63651 11.7106 8.63651 10.5592C8.63651 9.55468 7.83286 8.63255 6.22557 8.63255" fill="white"/>
<path d="M50.2998 9.70942C50.2998 9.70942 50.1762 8.34168 50.8484 7.78531C50.8484 7.78531 51.3971 7.01515 52.2806 7.4453C52.2806 7.4453 52.8601 7.78531 52.6773 9.17365L52.0977 13.2769C52.0977 13.2769 52.0977 13.586 52.4326 12.906C52.7674 12.2285 54.5189 9.70684 55.2659 9.48017C55.2659 9.48017 56.1185 8.9882 56.729 10.3276C56.729 10.3276 56.8784 10.7397 56.9428 11.3888C57.0071 12.0354 57.0638 13.1198 57.0046 14.2016C57.0046 14.2016 56.9737 14.727 57.6743 13.246C58.3749 11.7649 59.6602 9.22002 60.8425 9.41835C62.0274 9.61927 61.9707 10.5903 62.0016 11.3013C62.0299 12.0096 61.847 16.5146 62.151 17.0092C62.151 17.0092 62.3648 17.751 63.1272 17.6274C63.1272 17.6274 63.7171 19.5721 61.7183 19.6519C61.5045 19.6597 60.2449 19.5927 60.2037 17.7819C60.2037 17.7819 60.3608 13.2073 59.959 12.9369C59.959 12.9369 59.6267 12.329 58.344 15.8681C57.0561 19.4227 56.85 19.4098 55.7527 19.3248C54.9105 19.2604 54.9002 18.0292 54.9311 17.4728C54.962 16.9165 54.9388 12.7205 54.9259 12.4913C54.9208 12.3831 54.7739 11.6335 53.3444 14.8867C52.9812 15.7161 52.77 16.7027 52.5253 18.0601C52.5253 18.0601 52.2007 19.6313 50.8201 19.4175C50.8201 19.4175 50.0268 19.3248 49.9675 18.2456C49.9675 18.2456 50.3333 14.0805 50.3333 12.6922C50.3333 11.3038 50.3024 9.70942 50.3024 9.70942H50.2998Z" fill="white"/>
<path d="M72.6962 17.1174C72.1167 17.2101 71.9956 16.9937 71.9956 16.9937C71.5397 16.6847 71.3568 15.3272 71.5397 14.4025C71.7226 13.4778 71.8437 12.1796 71.8437 12.1796C71.8153 7.86002 69.7418 6.5644 68.6445 6.47167C67.5472 6.37894 66.5118 7.41956 66.5118 7.41956C63.8922 9.75579 63.6166 14.1836 63.6166 14.1836C63.1581 19.8915 66.571 19.8297 66.571 19.8297C68.4616 19.9533 69.5254 17.9777 69.6182 18.0086C69.7083 18.0395 70.105 18.6886 70.105 18.6886C70.6021 19.3506 70.9421 19.4304 71.2641 19.397C73.1985 19.196 72.6962 17.1122 72.6962 17.1122V17.1174ZM69.4688 13.2589C69.2395 13.5654 69.3039 14.2943 69.3039 14.2943C69.2395 14.6137 69.1004 15.1443 69.1004 15.1443C68.9485 15.5771 68.7038 16.0098 68.7038 16.0098C67.8203 17.8901 66.6174 17.3981 66.6174 17.3981C65.108 16.9963 65.5046 13.6298 65.5046 13.6298C66.0713 8.7126 67.7301 8.82078 67.7301 8.82078C68.6317 8.90836 69.0283 10.0159 69.1236 10.2169C69.6903 11.4069 69.5589 12.8931 69.5589 12.8931C69.5486 13.0889 69.4688 13.2589 69.4688 13.2589Z" fill="white"/>
<path d="M77.9071 17.4702C77.379 17.9184 76.8407 17.2229 76.8407 17.2229C76.2869 16.6459 76.4672 15.783 76.5677 15.5873C76.6681 15.3915 78.824 12.6019 78.8215 4.7252C78.8215 -0.307885 76.8999 0.00378496 76.8999 0.00378496C75.2282 0.0527249 74.5431 1.66774 73.8708 5.08581C73.3454 7.74659 73.2784 12.2104 73.7008 15C74.4555 19.9893 76.8381 19.9996 76.8381 19.9996C78.6978 20.0305 78.636 18.2712 78.636 18.2712C78.6798 16.9627 77.9045 17.4702 77.9045 17.4702H77.9071ZM75.7048 13.2742C75.4086 13.591 75.236 10.4409 75.5219 7.40401C75.8052 4.4058 76.7325 2.69806 76.7325 2.69806C76.9257 2.47911 77.4177 6.81673 77.0287 9.17615C76.6398 11.5356 76.0422 12.9085 75.7022 13.2717L75.7048 13.2742Z" fill="white"/>
<path d="M84.1224 17.4702C83.5944 17.9184 83.0561 17.2229 83.0561 17.2229C82.5023 16.6459 82.6826 15.783 82.7804 15.5873C82.8809 15.3915 85.0368 12.6019 85.0343 4.7252C85.0343 -0.307885 83.1153 0.00378496 83.1153 0.00378496C81.4436 0.0527249 80.7585 1.66774 80.0836 5.08581C79.5607 7.74659 79.4912 12.2104 79.9136 15C80.6709 19.9893 83.0535 19.9996 83.0535 19.9996C84.9132 20.0305 84.8514 18.2712 84.8514 18.2712C84.8952 16.9627 84.1199 17.4702 84.1199 17.4702H84.1224ZM81.9201 13.2742C81.6239 13.591 81.4539 10.4409 81.7373 7.40401C82.018 4.4058 82.9479 2.69806 82.9479 2.69806C83.1436 2.47911 83.633 6.81673 83.2441 9.17615C82.8551 11.5356 82.2576 12.9085 81.9176 13.2717L81.9201 13.2742Z" fill="white"/>
</svg>
