<svg width="142" height="18" viewBox="0 0 142 18" fill="none" xmlns="http://www.w3.org/2000/svg">
<path d="M7.43686 5.72752C6.39231 4.7677 5.38429 4.50912 4.55742 4.50912C3.35217 4.50912 2.61441 5.12708 2.61441 5.86192C2.61441 6.85826 3.33318 7.26877 5.67501 8.56898C6.19509 8.86116 6.78968 9.2746 7.25571 9.87357C7.63847 10.3381 7.92481 10.9707 7.92481 11.8107C7.92481 13.6442 6.53987 14.9999 4.36019 14.9999C3.15348 14.9999 2.00375 14.604 1.04686 13.9188V11.7947C1.40916 12.2227 2.5063 13.5068 4.36019 13.5068C5.27618 13.5068 6.2696 12.9575 6.2696 11.9641C6.2696 10.9707 5.22359 10.268 4.64799 9.94077C2.70352 8.82464 2.14692 8.50178 1.60784 7.85168C1.22801 7.38857 0.994263 6.84073 0.994263 6.10443C0.994263 4.33819 2.39819 3.00146 4.61439 3.00146C5.6195 3.00146 6.59246 3.29219 7.43832 3.82542V5.72752H7.43686Z" fill="white"/>
<path d="M20.2464 14.8457H18.546V9.75444H12.0025V14.8457H10.321V3.15552H12.0025V8.21172H18.546V3.15552H20.2464V14.8457Z" fill="white"/>
<path d="M24.7817 14.8457H23.1002V3.15552H24.7817V14.8457Z" fill="white"/>
<path d="M38.5217 14.8457H37.0842L29.2669 5.84505V14.8457H27.6876V3.15552H29.0433L36.9279 12.2234V3.15552H38.5217V14.8457Z" fill="white"/>
<path d="M47.1882 5.72727C46.1466 4.76745 45.1342 4.50887 44.3102 4.50887C43.102 4.50887 42.3643 5.12684 42.3643 5.86167C42.3643 6.85801 43.086 7.26853 45.4264 8.56873C45.9479 8.86092 46.5396 9.27435 47.0085 9.87332C47.3883 10.3379 47.6747 10.9705 47.6747 11.8105C47.6747 13.6439 46.2897 14.9996 44.1115 14.9996C42.9048 14.9996 41.7551 14.6037 40.7997 13.9186V11.7944C41.1605 12.2225 42.2576 13.5066 44.1115 13.5066C45.029 13.5066 46.0209 12.9573 46.0209 11.9639C46.0209 10.9705 44.9764 10.2678 44.3979 9.94053C42.4563 8.82439 41.8997 8.50153 41.3577 7.85143C40.9837 7.38686 40.7456 6.83756 40.7456 6.10272C40.7456 4.33649 42.1495 2.99976 44.3643 2.99976C45.3708 2.99976 46.3423 3.29048 47.1897 3.82371V5.72581L47.1882 5.72727Z" fill="white"/>
<path d="M56.7014 4.6471H51.7504V8.21318H56.5334V9.70476H51.7504V13.3366H56.8577V14.8472H50.0703V3.15552H56.6999V4.6471H56.7014Z" fill="white"/>
<path d="M69.1032 14.0369C68.212 14.4328 66.7716 14.9982 64.8183 14.9982C60.2954 14.9982 58.424 11.7579 58.424 9.10196C58.424 6.01653 60.738 2.99976 64.7511 2.99976C66.3947 2.99976 67.6116 3.46286 68.8636 3.99463V5.70682C66.944 4.59361 65.3691 4.49134 64.7146 4.49134C62.3816 4.49134 60.1712 6.23859 60.1712 8.99824C60.1712 11.587 62.0397 13.5227 64.8695 13.5227C65.7241 13.5227 66.3114 13.3693 67.4246 13.0084V10.5746H65.1792V9.1005H69.1032V14.034V14.0369Z" fill="white"/>
<path d="M82.0804 14.8458H80.3668L78.8065 11.398H73.8365L72.3624 14.8458H70.6473L75.6699 3.08691H76.8518L82.0789 14.8458H82.0804ZM78.1213 9.89036L76.2353 5.65665L74.4851 9.89036H78.1213Z" fill="white"/>
<path d="M90.6774 4.6471H85.7206V8.21318H90.5036V9.70476H85.7206V13.3366H90.8279V14.8472H84.0435V3.15552H90.6774V4.6471Z" fill="white"/>
<path d="M110.228 14.8769H108.549V5.77549L104.949 10.2985H104.64L101.006 5.77549V14.8769H99.3263V3.1853H100.903L104.793 7.98584L108.669 3.1853H110.228V14.8769Z" fill="white"/>
<path d="M123.396 14.8787H121.681L120.122 11.431H115.151L113.677 14.8787H111.963L116.983 3.11841H118.166L123.395 14.8787H123.396ZM119.436 9.92624L117.551 5.68961L115.802 9.92624H119.436Z" fill="white"/>
<path d="M127.027 13.3488H132.289V14.8769H125.329V3.1853H127.027V13.3488Z" fill="white"/>
<path d="M135.744 13.3488H141.006V14.8769H134.046V3.1853H135.744V13.3488Z" fill="white"/>
</svg>
